<?xml version="1.0" encoding="UTF-8" standalone="no"?>
<!-- Created with Inkscape (http://www.inkscape.org/) -->
<svg
   xmlns:dc="http://purl.org/dc/elements/1.1/"
   xmlns:cc="http://creativecommons.org/ns#"
   xmlns:rdf="http://www.w3.org/1999/02/22-rdf-syntax-ns#"
   xmlns:svg="http://www.w3.org/2000/svg"
   xmlns="http://www.w3.org/2000/svg"
   xmlns:sodipodi="http://sodipodi.sourceforge.net/DTD/sodipodi-0.dtd"
   xmlns:inkscape="http://www.inkscape.org/namespaces/inkscape"
   viewBox="0 0 803 534" width="100%"
   id="svg18983"
   sodipodi:version="0.32"
   inkscape:version="0.46"
   version="1.0"
   sodipodi:docname="LARGE BLUE FLAG.svg"
   inkscape:output_extension="org.inkscape.output.svg.inkscape">
  <defs
     id="defs18985">
    <inkscape:perspective
       sodipodi:type="inkscape:persp3d"
       inkscape:vp_x="0 : 526.18109 : 1"
       inkscape:vp_y="0 : 1000 : 0"
       inkscape:vp_z="744.09448 : 526.18109 : 1"
       inkscape:persp3d-origin="372.04724 : 350.78739 : 1"
       id="perspective18991" />
    <inkscape:perspective
       id="perspective19000"
       inkscape:persp3d-origin="372.04724 : 350.78739 : 1"
       inkscape:vp_z="744.09448 : 526.18109 : 1"
       inkscape:vp_y="0 : 1000 : 0"
       inkscape:vp_x="0 : 526.18109 : 1"
       sodipodi:type="inkscape:persp3d" />
    <inkscape:perspective
       id="perspective19054"
       inkscape:persp3d-origin="372.04724 : 350.78739 : 1"
       inkscape:vp_z="744.09448 : 526.18109 : 1"
       inkscape:vp_y="0 : 1000 : 0"
       inkscape:vp_x="0 : 526.18109 : 1"
       sodipodi:type="inkscape:persp3d" />
  </defs>
  <sodipodi:namedview
     id="base"
     pagecolor="#ffffff"
     bordercolor="#666666"
     borderopacity="1.0"
     gridtolerance="10000"
     guidetolerance="10"
     objecttolerance="10"
     inkscape:pageopacity="0.0"
     inkscape:pageshadow="2"
     inkscape:zoom="0.49497475"
     inkscape:cx="395.67586"
     inkscape:cy="281.3316"
     inkscape:document-units="px"
     inkscape:current-layer="layer1"
     showgrid="false"
     inkscape:window-width="644"
     inkscape:window-height="669"
     inkscape:window-x="160"
     inkscape:window-y="40" />
  <metadata
     id="metadata18988">
    <rdf:RDF>
      <cc:Work
         rdf:about="">
        <dc:format>image/svg+xml</dc:format>
        <dc:type
           rdf:resource="http://purl.org/dc/dcmitype/StillImage" />
      </cc:Work>
    </rdf:RDF>
  </metadata>
  <g
     inkscape:label="Layer 1"
     inkscape:groupmode="layer"
     id="layer1"
     transform="translate(56.944548,-118.74139)">
    <path
       style="fill:#00008a;fill-opacity:1"
       d="M -56.9375,118.75 L -56.9375,385.75 L -56.9375,652.75 L 344.5625,652.75 L 746.0625,652.75 L 746.0625,385.75 L 746.0625,118.75 L 344.5625,118.75 L -56.9375,118.75 z"
       id="path19024" />
    <path
       style="fill:#e7bd21;fill-rule:evenodd;stroke:none;stroke-width:1px;stroke-linecap:butt;stroke-linejoin:miter;stroke-opacity:1;fill-opacity:1"
       d="M 231.28125 76.03125 C 230.9012 76.08692 230.44808 76.37581 229.875 76.875 C 228.9671 77.66584 222.74378 81.08376 216.0625 84.46875 C 203.24666 90.26389 189.91333 101.66741 192.75 117.21875 C 195.31276 130.41437 207.12975 138.13303 213.59375 149.3125 C 217.63802 157.32416 220.71875 169.07569 220.71875 176.53125 C 220.71875 182.16185 220.54828 182.5625 218.375 182.5625 C 216.23257 182.5625 215.97833 181.96027 215.03125 174.8125 C 212.88005 158.57713 201.64969 142.13165 187.40625 134.40625 C 177.19598 127.47252 163.88942 127.06126 153.21875 133.21875 C 140.67924 139.98512 136.00985 154.46917 141.6875 169 C 145.16387 177.8971 151.41614 184.0753 159.46875 186.5625 C 163.02491 187.66089 168.06024 188.5625 170.6875 188.5625 L 175.46875 188.5625 L 174.125 184.8125 C 172.42054 180.03637 172.36022 174.39417 173.96875 172.40625 C 178.20008 167.17691 185.6184 166.10013 192.09375 169.8125 C 196.60375 172.39812 199.90095 177.77227 199.5 181.9375 C 199.26187 184.41122 198.56532 185.03157 194.84375 186.125 C 189.60107 187.66535 185.71875 191.07047 185.71875 194.125 C 185.71875 196.96381 190.11167 200.69075 195.59375 202.5 C 199.4303 203.76617 199.77294 204.18065 199.21875 206.5 C 198.07474 211.28777 193.29124 217.85265 189.5 219.8125 C 186.32752 221.4525 185.2374 221.54844 182.25 220.5625 C 178.25618 219.24442 174.8465 215.42 174.03125 211.34375 C 173.72583 209.81664 173.1875 208.56044 172.84375 208.5625 C 170.51189 208.57645 165.35339 213.24949 163.53125 217 C 161.63412 220.90488 161.50943 221.93323 162.53125 225.34375 C 164.40758 231.60638 167.84887 235.8845 173.125 238.5 C 183.1411 243.46519 193.84966 242.05385 201.96875 234.71875 C 207.43329 229.78189 214.71875 215.10894 214.71875 209.0625 L 214.71875 204.5625 L 218.34375 204.5625 L 221.96875 204.5625 L 221.28125 210.75 C 220.402 218.52152 218.63772 222.80959 214.34375 227.5625 C 210.45143 231.87083 207.23467 240.48439 208.15625 244.15625 C 211.79671 255.09841 222.68807 255.2687 230.25 261.59375 C 230.70885 262.33618 231.43209 262.24202 232.5625 261.25 C 241.09906 256.27009 252.50783 252.59891 254.28125 244.15625 C 255.20283 240.4844 251.98607 231.87083 248.09375 227.5625 C 243.79978 222.80959 242.0355 218.5215 241.15625 210.75 L 240.46875 204.5625 L 244.09375 204.5625 L 247.71875 204.5625 L 247.71875 209.0625 C 247.71875 215.10893 255.00422 229.78187 260.46875 234.71875 C 268.58785 242.05387 279.2964 243.4652 289.3125 238.5 C 294.58863 235.88449 298.02992 231.60638 299.90625 225.34375 C 300.92806 221.93323 300.80338 220.90488 298.90625 217 C 297.0841 213.24949 291.92561 208.57644 289.59375 208.5625 C 289.25 208.56045 288.71167 209.81665 288.40625 211.34375 C 287.591 215.41999 284.18132 219.24443 280.1875 220.5625 C 277.20009 221.54843 276.10999 221.4525 272.9375 219.8125 C 269.14625 217.85265 264.33151 211.28776 263.1875 206.5 C 262.63331 204.18066 263.0072 203.76617 266.84375 202.5 C 272.32583 200.69075 276.71875 196.96381 276.71875 194.125 C 276.71875 191.07047 272.80519 187.66534 267.5625 186.125 C 263.84092 185.03158 263.17563 184.41122 262.9375 181.9375 C 262.53655 177.77227 265.8025 172.39812 270.3125 169.8125 C 276.78785 166.10013 284.23742 167.17692 288.46875 172.40625 C 290.07728 174.39416 289.98571 180.03637 288.28125 184.8125 L 286.9375 188.5625 L 291.71875 188.5625 C 294.34601 188.5625 299.41259 187.66089 302.96875 186.5625 C 311.02136 184.0753 317.27363 177.89709 320.75 169 C 328.19372 148.45151 313.91874 129.08781 293.21875 127.46875 C 269.08013 129.41672 252.64304 152.93886 247.375 174.8125 C 246.42791 181.96027 246.17368 182.5625 244.03125 182.5625 C 241.85797 182.5625 241.71875 182.16186 241.71875 176.53125 C 241.71875 169.09584 244.76571 157.32974 248.78125 149.375 C 259.0567 132.74422 273.83407 125.58492 267.75 103.40625 C 264.83028 95.63121 259.36499 90.90427 244.84375 83.625 C 238.24996 80.31964 232.56033 77.13452 232.1875 76.53125 C 231.95216 76.15047 231.6613 75.97559 231.28125 76.03125 z "
       id="rect19590"
       transform="translate(-56.944548,118.74139)" />
    <path
       id="path19595"
       d="M 344.04233,398.82345 C 343.66228,398.87912 343.20916,399.16801 342.63608,399.6672 C 341.72818,400.45804 335.50486,403.87596 328.82358,407.26095 C 316.00774,413.05609 302.67441,424.45961 305.51108,440.01095 C 308.07384,453.20657 319.89083,460.92523 326.35483,472.1047 C 330.3991,480.11636 333.47983,491.86789 333.47983,499.32345 C 333.47983,504.95405 333.30936,505.3547 331.13608,505.3547 C 328.99365,505.3547 328.73941,504.75247 327.79233,497.6047 C 325.64113,481.36933 314.41077,464.92385 300.16733,457.19845 C 289.95706,450.26472 276.6505,449.85346 265.97983,456.01095 C 253.44032,462.77732 248.77093,477.26137 254.44858,491.7922 C 257.92495,500.6893 264.17722,506.8675 272.22983,509.3547 C 275.78599,510.45309 280.82132,511.3547 283.44858,511.3547 L 288.22983,511.3547 L 286.88608,507.6047 C 285.18162,502.82857 285.1213,497.18637 286.72983,495.19845 C 290.96116,489.96911 298.37948,488.89233 304.85483,492.6047 C 309.36483,495.19032 312.66203,500.56447 312.26108,504.7297 C 312.02295,507.20342 311.3264,507.82377 307.60483,508.9172 C 302.36215,510.45755 298.47983,513.86267 298.47983,516.9172 C 298.47983,519.75601 302.87275,523.48295 308.35483,525.2922 C 312.19138,526.55837 312.53402,526.97285 311.97983,529.2922 C 310.83582,534.07997 306.05232,540.64485 302.26108,542.6047 C 299.0886,544.2447 297.99848,544.34064 295.01108,543.3547 C 291.01726,542.03662 287.60758,538.2122 286.79233,534.13595 C 286.48691,532.60884 285.94858,531.35264 285.60483,531.3547 C 283.27297,531.36865 278.11447,536.04169 276.29233,539.7922 C 274.3952,543.69708 274.27051,544.72543 275.29233,548.13595 C 277.16866,554.39858 280.60995,558.6767 285.88608,561.2922 C 295.90218,566.25739 306.61074,564.84605 314.72983,557.51095 C 320.19437,552.57409 327.47983,537.90114 327.47983,531.8547 L 327.47983,527.3547 L 331.10483,527.3547 L 334.72983,527.3547 L 334.04233,533.5422 C 333.16308,541.31372 331.3988,545.60179 327.10483,550.3547 C 323.21251,554.66303 319.99575,563.27659 320.91733,566.94845 C 324.55779,577.89061 335.44915,578.0609 343.01108,584.38595 C 343.46993,585.12838 344.19317,585.03422 345.32358,584.0422 C 353.86014,579.06229 365.26891,575.39111 367.04233,566.94845 C 367.96391,563.2766 364.74715,554.66303 360.85483,550.3547 C 356.56086,545.60179 354.79658,541.3137 353.91733,533.5422 L 353.22983,527.3547 L 356.85483,527.3547 L 360.47983,527.3547 L 360.47983,531.8547 C 360.47983,537.90113 367.7653,552.57407 373.22983,557.51095 C 381.34893,564.84607 392.05748,566.2574 402.07358,561.2922 C 407.34971,558.67669 410.791,554.39858 412.66733,548.13595 C 413.68914,544.72543 413.56446,543.69708 411.66733,539.7922 C 409.84518,536.04169 404.68669,531.36864 402.35483,531.3547 C 402.01108,531.35265 401.47275,532.60885 401.16733,534.13595 C 400.35208,538.21219 396.9424,542.03663 392.94858,543.3547 C 389.96117,544.34063 388.87107,544.2447 385.69858,542.6047 C 381.90733,540.64485 377.09259,534.07996 375.94858,529.2922 C 375.39439,526.97286 375.76828,526.55837 379.60483,525.2922 C 385.08691,523.48295 389.47983,519.75601 389.47983,516.9172 C 389.47983,513.86267 385.56627,510.45754 380.32358,508.9172 C 376.602,507.82378 375.93671,507.20342 375.69858,504.7297 C 375.29763,500.56447 378.56358,495.19032 383.07358,492.6047 C 389.54893,488.89233 396.9985,489.96912 401.22983,495.19845 C 402.83836,497.18636 402.74679,502.82857 401.04233,507.6047 L 399.69858,511.3547 L 404.47983,511.3547 C 407.10709,511.3547 412.17367,510.45309 415.72983,509.3547 C 423.78244,506.8675 430.03471,500.68929 433.51108,491.7922 C 440.9548,471.24371 426.67982,451.88001 405.97983,450.26095 C 381.84121,452.20892 365.40412,475.73106 360.13608,497.6047 C 359.18899,504.75247 358.93476,505.3547 356.79233,505.3547 C 354.61905,505.3547 354.47983,504.95406 354.47983,499.32345 C 354.47983,491.88804 357.52679,480.12194 361.54233,472.1672 C 371.81778,455.53642 386.59515,448.37712 380.51108,426.19845 C 377.59136,418.42341 372.12607,413.69647 357.60483,406.4172 C 351.01104,403.11184 345.32141,399.92672 344.94858,399.32345 C 344.71324,398.94267 344.42238,398.76779 344.04233,398.82345 z"
       style="fill:#e7bd21;fill-opacity:1;fill-rule:evenodd;stroke:none;stroke-width:1px;stroke-linecap:butt;stroke-linejoin:miter;stroke-opacity:1" />
    <path
       style="fill:#e7bd21;fill-opacity:1;fill-rule:evenodd;stroke:none;stroke-width:1px;stroke-linecap:butt;stroke-linejoin:miter;stroke-opacity:1"
       d="M 513.74796,192.75233 C 513.36791,192.808 512.91479,193.09689 512.34171,193.59608 C 511.43381,194.38692 505.21049,197.80484 498.52921,201.18983 C 485.71337,206.98497 472.38004,218.38849 475.21671,233.93983 C 477.77947,247.13545 489.59646,254.85411 496.06046,266.03358 C 500.10473,274.04524 503.18546,285.79677 503.18546,293.25233 C 503.18546,298.88293 503.01499,299.28358 500.84171,299.28358 C 498.69928,299.28358 498.44504,298.68135 497.49796,291.53358 C 495.34676,275.29821 484.1164,258.85273 469.87296,251.12733 C 459.66269,244.1936 446.35613,243.78234 435.68546,249.93983 C 423.14595,256.7062 418.47656,271.19025 424.15421,285.72108 C 427.63058,294.61818 433.88285,300.79638 441.93546,303.28358 C 445.49162,304.38197 450.52695,305.28358 453.15421,305.28358 L 457.93546,305.28358 L 456.59171,301.53358 C 454.88725,296.75745 454.82693,291.11525 456.43546,289.12733 C 460.66679,283.89799 468.08511,282.82121 474.56046,286.53358 C 479.07046,289.1192 482.36766,294.49335 481.96671,298.65858 C 481.72858,301.1323 481.03203,301.75265 477.31046,302.84608 C 472.06778,304.38643 468.18546,307.79155 468.18546,310.84608 C 468.18546,313.68489 472.57838,317.41183 478.06046,319.22108 C 481.89701,320.48725 482.23965,320.90173 481.68546,323.22108 C 480.54145,328.00885 475.75795,334.57373 471.96671,336.53358 C 468.79423,338.17358 467.70411,338.26952 464.71671,337.28358 C 460.72289,335.9655 457.31321,332.14108 456.49796,328.06483 C 456.19254,326.53772 455.65421,325.28152 455.31046,325.28358 C 452.9786,325.29753 447.8201,329.97057 445.99796,333.72108 C 444.10083,337.62596 443.97614,338.65431 444.99796,342.06483 C 446.87429,348.32746 450.31558,352.60558 455.59171,355.22108 C 465.60781,360.18627 476.31637,358.77493 484.43546,351.43983 C 489.9,346.50297 497.18546,331.83002 497.18546,325.78358 L 497.18546,321.28358 L 500.81046,321.28358 L 504.43546,321.28358 L 503.74796,327.47108 C 502.86871,335.2426 501.10443,339.53067 496.81046,344.28358 C 492.91814,348.59191 489.70138,357.20547 490.62296,360.87733 C 494.26342,371.81949 505.15478,371.98978 512.71671,378.31483 C 513.17556,379.05726 513.8988,378.9631 515.02921,377.97108 C 523.56577,372.99117 534.97454,369.31999 536.74796,360.87733 C 537.66954,357.20548 534.45278,348.59191 530.56046,344.28358 C 526.26649,339.53067 524.50221,335.24258 523.62296,327.47108 L 522.93546,321.28358 L 526.56046,321.28358 L 530.18546,321.28358 L 530.18546,325.78358 C 530.18546,331.83001 537.47093,346.50295 542.93546,351.43983 C 551.05456,358.77495 561.76311,360.18628 571.77921,355.22108 C 577.05534,352.60557 580.49663,348.32746 582.37296,342.06483 C 583.39477,338.65431 583.27009,337.62596 581.37296,333.72108 C 579.55081,329.97057 574.39232,325.29752 572.06046,325.28358 C 571.71671,325.28153 571.17838,326.53773 570.87296,328.06483 C 570.05771,332.14107 566.64803,335.96551 562.65421,337.28358 C 559.6668,338.26951 558.5767,338.17358 555.40421,336.53358 C 551.61296,334.57373 546.79822,328.00884 545.65421,323.22108 C 545.10002,320.90174 545.47391,320.48725 549.31046,319.22108 C 554.79254,317.41183 559.18546,313.68489 559.18546,310.84608 C 559.18546,307.79155 555.2719,304.38642 550.02921,302.84608 C 546.30763,301.75266 545.64234,301.1323 545.40421,298.65858 C 545.00326,294.49335 548.26921,289.1192 552.77921,286.53358 C 559.25456,282.82121 566.70413,283.898 570.93546,289.12733 C 572.54399,291.11524 572.45242,296.75745 570.74796,301.53358 L 569.40421,305.28358 L 574.18546,305.28358 C 576.81272,305.28358 581.8793,304.38197 585.43546,303.28358 C 593.48807,300.79638 599.74034,294.61817 603.21671,285.72108 C 610.66043,265.17259 596.38545,245.80889 575.68546,244.18983 C 551.54684,246.1378 535.10975,269.65994 529.84171,291.53358 C 528.89462,298.68135 528.64039,299.28358 526.49796,299.28358 C 524.32468,299.28358 524.18546,298.88294 524.18546,293.25233 C 524.18546,285.81692 527.23242,274.05082 531.24796,266.09608 C 541.52341,249.4653 556.30078,242.306 550.21671,220.12733 C 547.29699,212.35229 541.8317,207.62535 527.31046,200.34608 C 520.71667,197.04072 515.02704,193.8556 514.65421,193.25233 C 514.41887,192.87155 514.12801,192.69667 513.74796,192.75233 z"
       id="path19597" />
  </g>
</svg>
