<svg xmlns="http://www.w3.org/2000/svg" xmlns:xlink="http://www.w3.org/1999/xlink" viewBox="0 0 960 675" width="100%">
  <!-- Fond orange Hollande -->
  <rect width="960" height="675" fill="#FFAB00"/>
  <!-- Lion rampant noir centré -->
  <g transform="translate(192, 37) scale(1.05)">

  
  <defs
     id="defs8731" />
  
  
  <g
     id="layer1"
     transform="translate(-380.59214,-200.10318)">
    <g
       id="g3196">
      <path
         style="fill:#000000;fill-opacity:1;stroke:none;stroke-width:1.00000024px;stroke-linecap:butt;stroke-linejoin:miter;stroke-opacity:0"
         d="m 587.21225,702.75214 -7.70612,14.09446 c 0,0 0.45723,7.67281 -1.35594,10.82512 -2.26948,3.94562 -10.85871,8.27978 -10.85871,8.27978 l -6.9354,0.70472 -3.08259,-2.11417 0,-8.45667 c 0,-9e-4 -5.73164,4.50522 -8.47635,6.64843 -1.53977,1.20233 -5.4412,2.17762 -5.4412,2.17762 l -18.06201,-14.11148 -12.32963,-9.16139 5.00887,-8.45668 6.93541,-11.98029 10.4031,5.28541 21.57669,5.28544 -20.03551,-1.76182 -11.17381,-3.52362 -4.62352,9.16143 0.38534,3.87595 31.97981,0.35237 -25.8151,2.81889 3.08234,5.99014 7.70612,2.46654 4.62352,9.1614 6.62601,-2.02824 c 3.23298,-7.1484 8.27225,-6.19354 12.25368,-9.5997 l -1.54117,10.57086 2.69699,3.87597 12.21489,-8.88641 0.77047,-6.69487 -4.12342,0.0774 -5.39423,-5.99015 5.66483,1.68444 5.77936,-1.05708 z"
         id="path3755-6-56-1" />
      <path
         style="fill:#000000;fill-opacity:1;stroke:none;stroke-width:1.00000024px;stroke-linecap:butt;stroke-linejoin:miter;stroke-opacity:0"
         d="m 654.51693,227.86007 c 15.95833,-5.56998 59.13829,-24.61309 79.37159,-7.39958 15.95944,1.06555 42.57557,-8.96528 27.74139,21.14166 l 8.09123,43.69284 c 1.17411,5.74531 3.00338,11.13098 9.24728,14.09448 -4.49523,2.40883 -8.99046,-0.56362 -13.48546,-5.63778 3.54806,10.543 9.43209,19.89925 4.23818,34.88378 l -3.85306,-7.39961 c -0.64658,11.04067 1.77392,22.08134 -3.46747,33.122 1.19913,12.97988 6.67187,23.85541 -4.62375,42.98811 -2.70233,9.97159 -7.76818,20.42352 7.32075,26.77948 -14.71353,3.51619 -20.78422,-2.30871 -24.27392,-10.92321 0.14589,5.75524 -1.9828,11.51047 -10.01775,17.26571 -3.76923,6.92979 -4.62678,13.85955 3.85305,20.78934 -5.87245,1.1942 -13.67397,-0.66846 -15.79735,-8.80905 -12.51351,12.01776 -4.21826,27.71089 13.48546,19.37989 -0.8489,6.67276 -4.88742,12.41627 -19.2648,15.5039 17.36723,14.02973 44.55839,28.41885 38.14449,41.57866 11.44361,7.39358 22.00304,15.19149 27.35628,25.37004 13.56558,8.5168 37.01392,4.36888 26.20021,-27.4842 -13.74853,-3.35012 -16.9858,-11.06975 -19.65016,-19.02752 -0.10651,-8.2062 -15.89113,-15.88656 -27.74139,0.35234 -3.67033,-17.38379 4.74094,-21.87763 13.10011,-26.4271 -11.16641,-10.52566 -25.51242,-20.27589 -6.93541,-38.05506 -4.15109,12.16206 6.34533,15.39382 13.87059,20.43699 -2.19216,-16.20863 0.81446,-32.41727 5.77958,-48.62589 -13.61029,-32.27717 -11.17683,-61.80331 8.09123,-88.44276 14.01647,-18.91007 23.62433,-37.82014 19.26503,-56.73021 11.96653,10.84911 13.30089,28.99084 8.86171,51.09243 12.74908,-13.74211 8.96528,-27.4842 11.55889,-41.22631 10.82845,25.48748 5.11749,50.97498 -1.15577,76.46246 15.10073,-12.70873 14.97101,-26.57817 18.49426,-40.16921 9.86961,26.44264 1.68034,53.30872 -28.51203,80.69079 -18.1553,19.78922 -33.37948,39.93591 -21.19134,63.42508 4.65318,-15.69274 16.64818,-37.06997 39.68572,-26.42711 -9.65816,3.29366 -21.14506,6.05916 -11.94436,14.79918 14.84701,-4.32242 22.4534,0.18382 28.12674,7.04723 -10.6517,0.72915 -26.08758,1.84096 -22.85448,24.12076 7.62775,19.26007 3.08349,30.28796 -8.35457,40.71377 3.03253,15.16615 9.54257,30.48373 -8.09123,44.74991 6.54612,2.00033 12.17538,4.83902 14.64129,10.57083 -5.7383,-5.31729 -13.70078,-8.31093 -23.11788,-3.17123 -2.52034,2.42671 -1.88776,7.20486 6.1647,13.03738 -13.74227,-2.63607 -27.48456,-7.81808 -41.22685,-15.15156 0.76654,14.31311 3.96329,26.58907 16.95317,30.65546 -5.52253,1.33906 -11.04529,1.77095 -16.56782,-2.46655 2.75375,11.3059 9.40546,14.59065 16.18247,17.6181 -6.29323,3.26778 -12.58647,2.86726 -18.87969,2.46651 7.35734,7.10597 16.02104,10.03086 25.42974,10.57087 18.48021,-4.72635 20.21985,10.56718 26.20021,20.78933 l 1.15606,15.15153 c 5.18841,10.63809 8.82859,1.45521 13.10008,0.35237 0.40674,11.02547 -5.04585,15.50161 -13.87078,16.20862 -7.35017,20.49832 -1.71371,24.36938 6.16472,25.37004 -22.01741,1.54176 -38.44882,7.74812 -36.98847,28.89366 l -2.66312,-12.90446 c -10.28894,12.31745 -18.51108,29.88739 -40.49049,21.71348 l -6.88832,8.69566 -30.48548,-7.99094 -3.85305,-4.58068 -14.86336,-11.14148 4.84561,-10.00023 10.4031,-8.45667 c 0,0 3.87825,-2.41556 6.06476,-2.91698 1.42723,-0.3273 2.98937,-0.42883 4.39283,-0.0112 4.98609,1.48374 13.04562,8.56595 13.04562,8.56595 l 20.03553,-0.35235 8.09122,-8.10432 8.94559,-11.66138 16.48783,-22.62386 -1.15949,-9.05524 c -8.06298,1.95772 -12.55821,-0.97861 -16.56805,-4.58068 1.09492,12.54655 0.12216,24.52782 -20.02457,27.82363 9.51296,-8.45106 4.79543,-17.89523 -1.55211,-23.94768 l -3.85283,4.22836 c 0,0 4.2282,23.36817 -3.00946,29.90766 -4.31298,3.89694 -7.18711,6.73575 -18.18211,2.15724 10.30352,1.48202 9.59164,-4.36235 8.86193,-10.21849 -5.28993,-8.76461 -7.00296,-10.39094 -9.63241,-15.5039 -2.01545,41.28444 -33.13779,30.77243 -40.79678,15.3368 7.30617,5.1652 15.24083,4.41407 21.53174,1.22419 1.23641,-8.06246 3.00982,-16.73027 -2.78759,-21.11709 -10.39686,-19.25781 -5.12531,-25.3762 -4.14782,-35.9655 6.37059,-13.15481 0.6878,-26.30967 -2.69699,-39.46448 L 684.5702,563.6606 c -18.37879,6.6422 -53.1496,42.09428 -8.86193,51.07772 -9.44969,10.59096 -19.57838,10.29121 -30.05328,4.94778 2.0187,15.0527 4.11718,30.68228 29.28153,27.32883 -1.00044,7.94434 -12.48321,13.34144 -28.35256,9.47094 2.29218,9.66386 5.79549,21.05017 -15.13648,27.0203 5.69436,-13.18004 -0.72179,-18.29789 -6.10004,-22.27249 -9.64051,6.85727 -22.80461,28.25491 -0.88379,33.50542 -3.27247,2.99649 -10.10297,7.21197 -18.49433,-3.87598 -7.44396,8.10432 -6.75246,16.20862 -7.32076,24.31295 -5.74762,-3.00962 -10.65761,-6.4022 -12.3294,-11.27557 l -9.63241,14.79918 0.77047,8.10432 -5.77958,3.87598 -8.09123,4.58069 -9.24705,2.11417 -2.31188,-4.22834 0,-7.04723 -9.24706,8.80905 -6.55005,0 -3.08235,-1.40945 -12.71499,-11.9803 -4.9817,-3.23142 -7.73306,-6.28233 6.68037,-11.21541 6.35585,-8.60332 c 0,0 5.17517,-2.58837 7.98307,-3.10799 1.03826,-0.19214 2.14682,-0.25315 3.16762,0.0168 4.87391,1.28878 13.18689,7.40603 13.18689,7.40603 l 14.25617,-2.11417 8.09123,-5.63778 3.4677,-24.66529 c -11.76643,5.71747 -23.16558,5.05471 -33.90633,-7.04726 26.7581,7.72263 30.36336,-5.04525 25.42974,-25.37002 -28.33238,9.20193 -39.40661,-15.97743 -30.05326,-29.95072 -1.66323,10.33881 13.4938,30.6746 23.11787,7.39957 4.82545,-16.79115 17.9999,-21.58386 29.66791,-28.54128 14.05723,-5.65598 15.20217,-12.49278 19.65039,-19.02751 1.18802,-20.4817 20.50517,-27.87458 40.8415,-34.53143 7.84738,-5.03099 19.96651,-3.5505 22.3474,-16.91335 l -9.63241,-3.52364 8.8617,-3.17124 c -22.6415,-10.54808 -42.08833,-23.04384 -58.56536,-37.35033 -7.64242,6.0192 -8.26098,15.25006 -10.01776,23.9606 l -3.85282,-13.74211 c -9.55854,12.45723 -9.36679,23.64063 -12.32964,35.23617 -4.14555,-5.21855 -6.89002,-10.75739 -6.9354,-16.91337 -1.35036,8.13284 -4.17959,15.58944 -9.63241,21.84642 -5.82451,6.81232 -2.37672,13.62465 -2.697,20.43697 -7.95622,-5.75526 -10.01822,-11.51048 -11.94428,-17.26572 l -13.10011,0.70472 -8.47659,11.9803 -7.32076,-3.52363 -20.42086,-15.5039 -2.31188,-13.74211 -4.62352,-9.16139 -0.38513,-26.07476 12.71477,-1.76179 8.47657,4.5807 11.17359,12.33263 10.78845,-4.22834 14.25594,-27.48418 35.4475,-29.59838 -1.92653,-8.45667 c -13.10474,2.76468 -26.20184,5.50198 -34.29144,-9.16142 7.17926,1.80884 14.67718,2.45243 23.88834,-3.17123 -6.93519,-2.44364 -13.87058,-2.57903 -20.80599,-10.21849 -1.29154,5.69153 -5.40048,9.45067 -10.78847,12.33265 3.98135,-7.51704 2.28317,-15.03411 -1.92652,-22.55115 l -6.93518,-10.21847 c 0,0 -5.34089,6.82928 -9.24728,7.39959 -7.35255,1.07343 -20.66042,-8.37005 -20.66042,-8.37005 l -8.62215,-9.24803 -2.68567,-0.46438 c -1.85954,-11.19169 -4.40333,-20.45943 -2.81297,-34.77178 l 1.26023,-17.26571 11.42938,-2.39132 14.00037,-5.00825 c 0,0 6.73977,1.16689 9.29101,3.22571 3.24497,2.61866 5.53693,6.62867 6.50633,10.68422 0.96283,4.02807 -0.96483,12.38711 -0.96483,12.38711 l 18.30311,9.6438 18.10899,15.50393 10.78846,0 c -1.82116,-0.31696 -15.80128,-12.69471 0.77047,-22.55115 -0.79455,10.82972 8.55648,11.5376 18.87969,11.27558 18.1208,-5.4804 34.91023,-8.8301 48.93297,-7.75196 13.78697,1.60859 26.41164,1.09137 38.14449,-1.05708 6.96853,-1.02133 10.95613,-7.24304 0,-10.92321 -16.97932,2.422 -35.32013,11.69208 -50.47413,4.93306 13.13994,-2.75742 18.65251,-8.30489 21.57668,-14.79918 l -1.92652,-8.10432 18.87969,0 c 37.99698,21.80621 40.21994,-38.12415 11.17381,-35.94088 l -6.55029,3.87599 -15.02662,-1.40945 c -4.61774,-2.81889 -4.25277,-5.63778 -3.85283,-8.45667 l -0.77071,-18.32282 z"
         id="path3648-6-2-8-7" />
      <path
         style="fill:#000000;fill-opacity:1;stroke:none;stroke-width:1.00000024px;stroke-linecap:butt;stroke-linejoin:miter;stroke-opacity:0"
         d="m 721.78931,234.0217 8.44577,0 6.26637,-3.23901 7.90087,-3.98654 6.26636,-2.98988 5.17654,0.74746 3.26925,3.98651 -0.27234,3.73739 -3.26947,4.23563 -3.54181,4.48483 -0.81725,4.48484 -2.17965,3.23905 -4.90397,1.7441 -4.3593,-0.24916 7.90111,-2.98989 -5.99379,-0.24916 7.62853,-3.48821 -7.08362,0.74749 8.44577,-5.23232 -5.99379,0.49832 10.08051,-5.73061 1.90708,-3.23901 -1.36217,-3.48823 -5.44888,-1.24578 -17.4367,9.71712 -2.9969,0.24916 -1.08982,1.24578 -0.81749,1.99325 -1.6345,-1.99325 -1.63473,-1.24578 -2.45198,-1.7441 z"
         id="path3642-30-1-6-4" />
      <path
         style="fill:#000000;fill-opacity:1;stroke:none;stroke-width:1.00000024px;stroke-linecap:butt;stroke-linejoin:miter;stroke-opacity:0"
         d="m 654.51569,227.86109 4.61064,2.17412 9.80818,0 -8.9907,7.72384 -0.1877,15.23884 -2.53685,-16.23547 -2.45199,-4.48479 z"
         id="path3644-0-7-6-0" />
      <path
         style="fill:#000000;fill-opacity:1;stroke:none;stroke-width:1.00000024px;stroke-linecap:butt;stroke-linejoin:miter;stroke-opacity:0"
         d="m 699.99353,255.69837 c 21.80619,19.15114 20.67816,42.54901 1.90708,58.3028 24.26373,-14.4483 22.0607,-45.04872 -1.90708,-58.3028 z"
         id="path3646-4-5-9-9" />
      <path
         style="fill:#000000;stroke:none;stroke-width:1.00000024px;stroke-linecap:butt;stroke-linejoin:miter;stroke-opacity:0"
         d="m 672.00287,299.0004 -2.4864,-8.5319 -2.17965,8.55805 c 2.37528,2.13676 3.30289,0.85213 4.66605,-0.0261 z"
         id="path3696-8-9-3-4" />
      <path
         style="fill:#000000;stroke:none;stroke-width:1.00000024px;stroke-linecap:butt;stroke-linejoin:miter;stroke-opacity:0"
         d="m 665.56592,299.00415 -2.45198,-8.46308 -2.1106,8.48922 c 2.35594,2.05922 3.10576,0.97361 4.56258,-0.0261 z"
         id="path3696-1-3-1-8-8" />
      <path
         style="fill:#000000;stroke:none;stroke-width:1.00000024px;stroke-linecap:butt;stroke-linejoin:miter;stroke-opacity:0"
         d="m 677.55374,266.82923 -2.45199,8.11894 -2.21406,-8.55805 c 2.55927,-1.89554 3.16807,-0.64046 4.66605,0.43911 z"
         id="path3696-4-0-8-1-8" />
      <path
         style="fill:#000000;stroke:none;stroke-width:1.00000024px;stroke-linecap:butt;stroke-linejoin:miter;stroke-opacity:0"
         d="m 670.74247,266.22767 -2.45199,8.22218 -2.35172,-8.66129 c 2.84688,-1.91241 3.44285,-0.54368 4.80371,0.43911 z"
         id="path3696-9-1-1-3-2" />
      <path
         style="fill:#000000;fill-opacity:1;stroke:none;stroke-width:1.00000024px;stroke-linecap:butt;stroke-linejoin:miter;stroke-opacity:0"
         d="m 705.14477,284.42204 c -16.43256,-6.28704 -32.76086,-5.19759 -45.43648,-5.16562 -12.4137,0.71253 -17.80075,-7.33749 -22.34045,-16.44437 -6.2601,-12.77595 -18.96931,-11.78994 -31.60393,-10.96293 7.23785,4.2773 13.59823,9.12773 15.80197,16.69353 4.25947,10.3819 12.34607,23.41561 33.78335,19.1851 18.80837,-0.75615 35.70084,-0.0243 48.72429,4.50984 0.51183,-1.59538 1.35419,-4.98108 1.07125,-7.81555 z"
         id="path3738-29-7-6-4" />
      <path
         style="fill:#000000;fill-opacity:1;stroke:none;stroke-width:1.00000024px;stroke-linecap:butt;stroke-linejoin:miter;stroke-opacity:0"
         d="m 769.71155,328.58548 c -5.4442,-6.7051 -8.15543,-12.07722 -10.28746,-22.66923 -4.02025,2.4334 -3.86649,8.46325 -1.36216,16.19522 1.55576,11.92828 8.13729,24.88029 4.30809,32.39043 -3.05363,-8.2222 -3.02444,-16.44438 -10.02955,-24.66657 -5.34281,-5.21517 -9.81257,-11.82779 -12.26016,-21.67667 -3.53579,-2.19211 -5.79718,6.10346 -7.90087,15.6969 0.66418,7.88999 -1.58008,15.77996 4.35906,23.66995 -4.69046,-3.62959 -12.2516,-4.00202 -14.98449,-11.21208 -3.29957,4.04204 -10.0724,4.90771 -8.17344,13.70364 0.45576,3.82042 0.0509,7.64082 -3.81438,11.46123 0.0904,11.0821 2.77621,13.09928 4.9042,15.94608 -4.40375,-1.67979 -8.88323,-3.53303 -14.71215,-8.47136 -7.05211,-6.56113 -5.23791,-13.12228 -5.4491,-19.68341 -5.4049,5.68231 -11.66941,7.43476 -18.5263,6.47807 l 3.5418,-5.97976 c -11.61219,6.1508 -21.66538,2.32051 -31.87627,-0.49831 l 2.99689,-2.74075 c -9.44482,3.95993 -18.88964,1.56564 -28.33447,0.49832 11.71525,1.16779 23.43026,-1.35319 35.14552,-5.48146 l -2.45199,4.73398 c 8.80357,4.73106 19.89124,0.34516 29.9692,-0.99663 l -3.5418,6.4781 c 5.67977,1.76822 14.34856,-10.13109 21.52343,-15.19858 -4.77915,12.87072 -10.16157,25.01759 5.44888,32.63959 -1.85358,-3.10139 -5.92201,-7.17691 -1.34735,-9.47054 6.85876,-3.43872 -1.22344,-18.68307 10.33804,-24.66399 -1.41589,-9.4259 3.15392,-14.29 5.72146,-20.68006 -7.68179,13.30454 -1.44229,20.50728 7.35595,25.91235 -0.80567,-12.20871 -4.28842,-24.41739 7.35619,-36.6261 l -3.81437,-13.20534 c 6.68228,14.10147 12.54824,30.19307 21.25085,39.36683 -8.04422,-14.16436 -5.53457,-26.86288 0.81748,-38.3702 z"
         id="path3740-0-8-4-5" />
      <path
         style="fill:#000000;fill-opacity:1;stroke:none;stroke-width:1.00000024px;stroke-linecap:butt;stroke-linejoin:miter;stroke-opacity:0"
         d="m 809.79217,258.16315 c -0.67785,15.7423 8.76212,24.25576 -22.73252,62.01564 -12.41161,24.28346 -20.63901,50.07025 -4.62352,84.56677 -6.71402,27.62838 -10.08075,52.72803 6.55005,62.72035 -16.94391,-21.02424 -5.27242,-42.04848 -2.31188,-63.07272 13.27009,-12.77966 12.74463,-33.12914 16.56781,-51.09243 3.41074,-27.87095 9.24057,-36.20054 15.41198,-41.22629 13.42393,-14.21192 9.03359,-27.49467 12.37746,-41.70658 0.95172,16.39959 8.75101,31.10621 -11.60698,50.16325 -14.40739,19.13188 -14.57088,46.40518 -21.57668,69.7676 7.90388,-18.82722 17.32554,-35.47288 32.36513,-44.04521 13.05795,-10.90791 13.9911,-22.44686 18.10893,-39.46449 -1.31508,15.3014 3.08792,30.32755 -16.56771,46.51172 -18.11828,9.35741 -24.35107,30.9431 -35.06218,47.9212 l 0,-8.10433 -8.47658,9.16139 c 1.80216,-13.34152 10.85908,-30.47423 -0.38536,-36.99796 -6.48544,-13.38972 1.37815,-26.77947 4.23841,-40.16921 23.00578,-23.32503 26.53184,-45.50073 17.72364,-66.9487 z"
         id="path3742-3-6-5-5" />
      <path
         style="fill:#000000;fill-opacity:1;stroke:none;stroke-width:1.00000024px;stroke-linecap:butt;stroke-linejoin:miter;stroke-opacity:0"
         d="m 763.79621,424.38076 c -14.31313,-2.29692 -21.1076,-11.23959 -17.96365,-29.50134 4.2757,-11.15811 2.35056,-22.31622 -1.54116,-33.47433 0.51595,11.74537 2.40358,21.02423 -1.92653,32.76961 -7.32375,22.11532 4.07202,34.3122 21.43134,30.20606 z"
         id="path3643-8-6-2-1" />
      <path
         style="fill:#000000;fill-opacity:1;stroke:none;stroke-width:1.00000024px;stroke-linecap:butt;stroke-linejoin:miter;stroke-opacity:0"
         d="m 734.35949,451.33104 c -14.31313,-2.29693 -21.52684,-12.15765 -18.38266,-30.41939 4.27569,-11.15813 2.35033,-22.31622 -1.54117,-33.47435 0.51597,11.74538 2.40358,21.02425 -1.92653,32.76962 -4.55984,23.60866 4.87102,33.77925 21.85036,31.12412 z"
         id="path3643-1-8-9-2-7" />
      <path
         style="fill:#000000;fill-opacity:1;stroke:none;stroke-width:1.00000024px;stroke-linecap:butt;stroke-linejoin:miter;stroke-opacity:0"
         d="m 732.73246,461.47576 c -20.56379,30.789 -50.85886,-8.13064 -40.8415,-61.66325 -31.53036,52.9495 31.91147,105.03338 40.8415,61.66325 z"
         id="path3667-5-9-0-1" />
      <path
         style="fill:#000000;fill-opacity:1;stroke:none;stroke-width:1.00000024px;stroke-linecap:butt;stroke-linejoin:miter;stroke-opacity:0"
         d="m 650.66387,382.19441 c -9.09744,10.21849 -12.47785,20.43697 -9.24705,30.65546 7.83556,22.82423 -5.74044,30.51754 -20.03551,37.70269 15.70795,-10.03624 23.04353,-22.50867 16.18245,-39.11214 -2.26834,-12.54921 2.01153,-22.33454 13.10011,-29.24601 z"
         id="path3669-77-2-1-1" />
      <path
         style="fill:#000000;fill-opacity:1;stroke:none;stroke-width:1.00000024px;stroke-linecap:butt;stroke-linejoin:miter;stroke-opacity:0"
         d="m 638.05703,373.53179 c -9.62106,7.24229 -14.11582,15.22923 -12.6828,24.07735 3.75603,19.84406 -9.51893,24.42044 -23.36588,28.48406 15.52222,-6.2309 23.88648,-15.56154 20.11286,-30.14833 -0.23599,-10.64492 5.00332,-18.1575 15.93582,-22.41308 z"
         id="path3669-7-0-6-0-5" />
      <path
         style="fill:#000000;fill-opacity:1;stroke:none;stroke-width:1.00000024px;stroke-linecap:butt;stroke-linejoin:miter;stroke-opacity:0"
         d="m 617.05837,364.01805 c -7.05026,5.59156 -10.34405,11.75805 -9.29406,18.58941 2.75257,15.32101 -6.97524,18.85428 -17.12223,21.99171 11.3746,-4.81071 17.50387,-12.01461 14.73856,-23.27664 -0.17369,-8.21863 3.66639,-14.01889 11.67773,-17.30448 z"
         id="path3669-7-4-8-6-3-2" />
      <path
         style="fill:#000000;fill-opacity:1;stroke:none;stroke-width:1.00000024px;stroke-linecap:butt;stroke-linejoin:miter;stroke-opacity:0"
         d="m 670.31404,405.09791 c -6.45488,27.93024 3.72475,49.90762 20.80621,69.41523 -6.53407,-7.23069 -15.78807,-13.39396 -20.42087,-21.49406 -8.67712,13.25747 -23.78088,10.53271 -39.30032,11.27559 16.24986,-4.28716 40.6794,-2.65247 33.90633,-23.60823 -2.89894,-11.86284 0.8499,-23.72569 5.00865,-35.58853 z"
         id="path3715-9-5-8-7" />
      <path
         style="fill:#000000;fill-opacity:1;stroke:none;stroke-width:1.00000024px;stroke-linecap:butt;stroke-linejoin:miter;stroke-opacity:0"
         d="m 612.80593,449.29847 c 3.70275,8.29916 8.01911,18.57022 20.13431,20.98633 l 25.04439,0.35237 -24.27392,1.40945 5.00888,2.46652 23.88857,1.40944 -23.11787,0.70472 6.1647,2.81889 20.03552,1.40945 -19.26481,0.70473 4.23817,3.87598 16.56781,0 -16.56781,2.46654 5.39424,1.7618 17.72386,0.35237 -17.72386,2.46652 5.00887,2.11417 14.25594,0 -8.09124,1.76181 11.94429,2.46652 -5.00888,1.76182 12.32964,3.87596 -4.23841,0 c 16.50783,12.47757 24.5722,28.81593 10.40311,55.32078 l 11.94428,41.22631 c 0.62319,8.97462 -0.30267,18.04369 -7.32075,27.48418 -2.66412,15.11613 2.73729,25.16133 8.09146,35.23617 1.20885,3.67676 7.03846,25.36181 -16.56804,25.37003 4.18236,5.7249 12.70986,1.2716 17.85443,3.47608 -0.3237,0.99812 -18.90541,8.03724 -29.22495,-11.83344 22.08177,6.20902 24.29323,-2.81782 19.8471,-18.06975 -10.42303,-8.84254 -10.5886,-21.24335 -6.16471,-35.23616 5.15108,-12.4786 3.18147,-22.3525 0.77071,-32.06489 l -7.32076,-31.67709 c -21.90137,10.52702 -50.37901,39.30521 -8.86193,51.05697 -5.15732,6.48133 -11.54837,13.50876 -29.35977,5.33173 0.5984,27.3173 15.71358,25.73192 29.74512,26.20461 -3.42162,8.57314 -10.876,17.09811 -28.5121,11.09939 4.30649,15.8544 -1.87094,24.19402 -16.56781,26.42712 2.95127,-11.1797 1.15721,-18.88749 -6.1647,-22.55113 7.26402,-12.58482 -3.22431,-14.12941 -2.69723,-19.37989 -12.54756,-10.27201 -1.55878,-12.65178 -0.38513,-18.32281 -4.54501,7.77737 -1.02311,13.34155 4.62354,18.32281 7.52686,6.74541 16.64121,16.27549 8.47658,31.00781 12.53597,-5.49189 4.13164,-15.22189 6.55005,-22.55113 l -12.71499,-28.54128 c 10.64627,19.48383 21.32519,38.77637 36.98868,28.89362 -29.18576,-0.86744 -29.3657,-28.63332 -27.7414,-47.56879 8.29456,13.5657 18.84195,14.77043 29.66793,14.44683 -39.92351,-18.00127 -19.23517,-42.4903 12.32963,-59.54911 -11.72452,-2.04001 -18.27549,-13.01262 -3.08235,-31.36019 2.45291,-5.30813 -3.63907,-15.00563 -9.0905,-16.71086 -2.53559,-0.79321 -6.11839,-1.77354 -9.50018,-3.5499 9.41264,-1.8391 28.85508,10.4872 23.98468,24.84147 -14.93632,17.39024 0.57525,22.07658 5.77959,13.38973 10.99063,-11.49202 3.47742,-32.28907 -21.96205,-42.63574 -22.07806,-8.0662 -40.51309,-18.43611 -57.62188,-36.15253 z"
         id="path3717-30-8-7-6" />
      <path
         style="fill:#000000;fill-opacity:1;stroke:none;stroke-width:1.00000024px;stroke-linecap:butt;stroke-linejoin:miter;stroke-opacity:0"
         d="m 692.74306,321.4079 -6.3348,-4.40416 c -18.71757,5.36613 -37.94125,11.00908 -51.01658,4.76564 9.91147,-1.77031 17.24132,-6.54207 21.70391,-14.95655 l -1.80784,-7.76572 4.31175,-0.007 1.99154,8.64419 c -2.78453,4.65092 -5.80018,9.27732 -12.50795,13.92824 15.17624,0.25391 28.70617,-7.0208 42.91023,-11.21207 l -4.08672,3.73735 z"
         id="path3719-7-4-3-1" />
      <path
         style="fill:#000000;fill-opacity:1;stroke:none;stroke-width:1.00000024px;stroke-linecap:butt;stroke-linejoin:miter;stroke-opacity:0"
         d="m 580.1043,325.49486 c -12.55611,7.50056 -11.01184,18.55222 6.64324,27.30643 -10.38667,-8.75965 -13.20395,-18.07712 -6.64324,-27.30643 z"
         id="path3723-4-0-3-4" />
      <path
         style="fill:#000000;fill-opacity:1;stroke:none;stroke-width:1.00000024px;stroke-linecap:butt;stroke-linejoin:miter;stroke-opacity:0"
         d="m 582.60598,353.00696 c -11.071,7.08901 -21.48499,18.58475 -34.60084,11.95955 8.97216,8.16998 21.47942,12.71757 28.06189,6.47808 0.98029,-5.11255 13.89746,-12.56403 21.79578,-16.69353 -8.50113,3.30389 -15.01923,10.23494 -19.88847,20.18173 -9.69794,9.35371 -24.15419,1.46341 -34.87341,-10.71375 14.11721,2.77082 26.80488,-4.26379 39.50505,-11.21208 z"
         id="path3725-7-3-1-2" />
      <path
         style="fill:#000000;fill-opacity:1;stroke:none;stroke-width:1.00000024px;stroke-linecap:butt;stroke-linejoin:miter;stroke-opacity:0"
         d="m 589.41702,369.45134 c 0.12083,5.42865 -3.68337,37.54181 -38.20233,31.06068 7.87544,14.72605 22.00285,12.2178 34.38055,9.15722 -8.355,-0.21716 -17.04968,2.49041 -25.4049,-3.84094 23.31957,0.58094 41.30459,-23.41305 29.22668,-36.37696 z"
         id="path3727-8-7-4-3" />
      <path
         style="fill:#000000;fill-opacity:1;stroke:none;stroke-width:1.00000024px;stroke-linecap:butt;stroke-linejoin:miter;stroke-opacity:0"
         d="m 536.28989,352.50865 3.81415,10.46461 12.53272,14.70027 22.88536,9.2188 5.99403,-12.45786 -0.27256,14.94944 -5.71528,8.19256 c -7.18915,-2.97916 -17.63384,-3.44276 -21.19266,-10.5473 -0.80215,5.59422 -4.84099,9.22224 -10.79425,12.44594 6.09556,-11.23319 -1.88523,-21.9378 -8.68864,-32.59931 -3.0453,2.98414 -5.77998,6.69304 -9.73321,7.55867 -8.05357,-0.15725 -13.15085,-3.33342 -18.9202,-6.72723 -4.87792,-2.86943 -9.93585,-6.30477 -12.74336,-11.21859 -3.06126,-5.35794 -3.48219,-18.18197 -3.48219,-18.18197 l 0,-15.6969 2.17964,-17.93932 16.34688,-6.4781 8.17344,0 1.08959,8.47136 4.63164,5.97976 0.54491,10.46461 -5.17655,-11.21207 -5.44888,-5.2323 -1.08981,-5.97979 -10.62544,4.23569 -2.99689,9.96627 4.90419,5.23232 11.44268,13.20533 -15.80196,-9.96629 -5.72146,1.50984 -1.2228,7.94324 6.127,9.98118 3.54182,6.4781 14.71214,-3.48822 -13.34998,7.72389 5.99379,9.71713 19.07144,1.99326 5.72123,-3.48819 0.81748,-7.97305 z"
         id="path3729-3-8-5-2" />
      <path
         style="fill:#000000;fill-opacity:1;stroke:none;stroke-width:1.00000024px;stroke-linecap:butt;stroke-linejoin:miter;stroke-opacity:0"
         d="m 612.87624,449.42256 c -1.92251,6.05668 1.22263,11.67473 -4.30185,16.68022 -7.49013,6.78647 -8.26577,15.46685 -9.81469,23.772 -3.49064,-3.92202 -6.38802,-7.88371 -4.88691,-12.45787 -5.99317,6.90454 -10.18365,27.51934 -11.26681,35.05068 -3.18911,-4.65984 -7.23005,-9.84707 -6.92483,-17.06343 -1.31921,8.26757 -4.90509,15.16883 -12.01221,24.42147 -3.59865,7.71229 2.52695,20.73802 1.22799,20.29842 -2.90859,-0.98436 -19.14508,-17.64507 -13.34998,-19.68344 l -14.71215,1.99326 c 0,0 -2.69182,9.12546 -7.23961,9.87132 -10.96793,1.79879 -27.90615,-18.0935 -27.90615,-18.0935 l -1.63473,-13.45449 -4.90397,-10.71377 -1.08983,-24.41739 8.71836,1.49494 6.81127,6.47808 9.80795,9.21883 10.898,0.24916 6.81104,-2.98989 -5.99378,5.48145 -9.26327,1.74409 -6.53871,-3.48819 -10.35285,-7.22556 -5.17654,0 0,5.48146 8.44577,6.9764 6.81128,5.97979 17.98139,0.24915 -14.43958,2.74072 -11.98782,-2.49156 -5.44889,-3.23906 4.3593,10.96292 8.71812,3.4882 5.72145,4.98316 c 2.45914,8.74975 6.6955,8.31727 10.62544,9.46796 l 8.99068,-5.97977 5.9938,-8.72051 1.08982,6.72726 9.26327,1.24578 4.08672,-18.43763 1.90708,15.69691 c 6.57159,-3.87344 8.1989,-12.26852 11.4429,-19.18513 l 2.9969,-16.19521 3.26924,21.42753 c -1.70514,-0.50976 2.13425,-24.61789 7.9011,-24.66658 4.29514,-0.0363 9.2973,-19.18509 8.44578,-19.18509 l 3.54181,17.93931 5.17654,-15.19859 z"
         id="path3731-7-3-6-2" />
      <path
         style="fill:#000000;fill-opacity:1;stroke:none;stroke-width:1.00000024px;stroke-linecap:butt;stroke-linejoin:miter;stroke-opacity:0"
         d="m 567.82482,445.97186 -11.55894,19.02753 -4.62352,8.45667 -10.01799,7.75196 6.93541,-8.80906 6.55005,-9.16139 6.55028,-11.27556 6.16471,-5.99015 z"
         id="path3733-1-1-1-1" />
      <path
         style="fill:#000000;fill-opacity:1;stroke:none;stroke-width:1.00000024px;stroke-linecap:butt;stroke-linejoin:miter;stroke-opacity:0"
         d="m 526.64827,479.37777 c 10.71801,-2.93773 14.37021,-11.02564 18.28181,-18.02857 6.64981,-15.89645 10.2098,-17.37212 15.95933,-22.07222 11.59829,-8.0601 19.17031,-15.22206 27.35627,-22.19878 l 16.95293,-10.21846 -18.49433,16.56099 c -8.29873,11.07616 -17.67825,16.22242 -26.97069,21.8464 -3.70428,2.53009 -11.33731,17.09197 -17.72387,27.83656 -4.03137,4.6067 -8.25607,7.28992 -15.36145,6.27408 z"
         id="path3735-0-1-2-6" />
      <path
         style="fill:#000000;fill-opacity:1;stroke:none;stroke-width:1.00000024px;stroke-linecap:butt;stroke-linejoin:miter;stroke-opacity:0"
         d="m 762.40061,434.86394 c -8.29711,15.08654 0.90896,27.36862 19.26481,36.83031 11.01726,3.96541 11.69487,13.84058 15.02664,22.19878 -5.65083,-8.65649 -9.56317,-18.42593 -25.0444,-20.78934 -28.13716,-17.13549 -18.47719,-30.22937 -9.24705,-38.23975 z"
         id="path3737-0-2-1-8" />
      <path
         style="fill:#000000;fill-opacity:1;stroke:none;stroke-width:1.00000024px;stroke-linecap:butt;stroke-linejoin:miter;stroke-opacity:0"
         d="m 837.96749,423.97989 c -36.92019,-1.6909 -32.43804,31.32648 -36.26655,57.22813 -11.46328,-30.67009 4.6106,-70.85885 36.26655,-57.22813 z"
         id="path3739-8-5-9-5" />
      <path
         style="fill:#000000;fill-opacity:1;stroke:none;stroke-width:1.00000024px;stroke-linecap:butt;stroke-linejoin:miter;stroke-opacity:0"
         d="m 854.48668,445.97186 c -29.70447,-20.49585 -38.21046,14.93609 -41.22681,33.47433 -1.82811,-35.50038 21.36501,-58.93277 41.22681,-33.47433 z"
         id="path3741-3-7-1-7" />
      <path
         style="fill:#000000;fill-opacity:1;stroke:none;stroke-width:1.00000024px;stroke-linecap:butt;stroke-linejoin:miter;stroke-opacity:0"
         d="m 757.39604,498.10404 c 7.88514,-10.56674 23.96247,-15.02188 28.13974,2.13149 3.00211,9.41235 10.47382,14.45742 18.87947,16.91337 10.67961,24.42888 -7.52802,35.81389 -24.2737,27.13183 21.25434,20.43773 39.60648,-8.58361 28.5121,-27.83656 l 5.77935,-5.63778 c -8.65188,2.3175 -15.79641,1.87792 -18.49434,-6.69487 -5.44054,-24.14569 -35.42924,-27.06464 -38.54262,-6.00748 z"
         id="path3743-4-6-8-6" />
      <path
         style="fill:#000000;fill-opacity:1;stroke:none;stroke-width:1.00000024px;stroke-linecap:butt;stroke-linejoin:miter;stroke-opacity:0"
         d="m 711.54112,518.20597 c 4.12378,15.6281 5.27033,31.2562 -0.59725,46.88433 -1.79267,4.77412 -0.26609,8.32573 -0.94393,13.3695 2.28687,14.8535 16.25633,26.46036 10.01776,46.51171 -4.51584,22.03433 0.72485,41.96201 10.01775,46.8641 5.72471,10.37864 2.50293,22.05287 -10.62567,19.42982 8.79562,-1.42994 11.02629,-6.87995 4.46097,-14.84914 -9.84684,-10.65192 -10.59671,-25.68416 -9.24728,-41.931 1.69587,-19.89448 3.32829,-28.53823 -1.15582,-35.58851 -9.3376,-12.58628 -9.54001,-21.98888 -7.70611,-33.82672 6.31129,-16.27733 5.30692,-31.48382 5.77958,-46.86409 z"
         id="path3745-5-2-0-1" />
      <path
         style="fill:#000000;fill-opacity:1;stroke:none;stroke-width:1.00000024px;stroke-linecap:butt;stroke-linejoin:miter;stroke-opacity:0"
         d="m 605.58396,618.62901 c -0.26839,5.40288 -1.88391,10.80575 2.69701,16.20862 1.98141,8.38486 4.93153,16.39001 0,27.48422 -5.90655,17.61683 -2.00784,40.26974 16.08506,32.45233 -9.77259,9.09108 -20.56636,-2.44541 -20.86786,-11.68227 -0.27023,-8.27853 -0.39758,-17.23178 0.92997,-20.41769 4.37573,-8.92546 4.6145,-18.32385 0.77047,-28.18893 -1.22876,-5.28544 -0.39878,-10.57084 0.38535,-15.85628 z"
         id="path3751-4-1-7-2" />
      <path
         style="fill:#000000;fill-opacity:1;stroke:none;stroke-width:1.00000024px;stroke-linecap:butt;stroke-linejoin:miter;stroke-opacity:0"
         d="m 598.74278,715.2246 c -23.39727,-10.05025 -10.20959,-29.42332 -7.8001,-46.20788 -0.76326,14.96425 -9.11197,34.20839 7.8001,46.20788 z"
         id="path3753-5-1-4-7" />
      <path
         style="fill:#000000;fill-opacity:1;stroke:none;stroke-width:1.00000024px;stroke-linecap:butt;stroke-linejoin:miter;stroke-opacity:0"
         d="m 585.3286,705.49998 -8.25673,13.19971 0.77944,9.15098 -16.1912,8.81946 c 0,0 -4.60849,1.76522 -6.7595,1.01411 -1.61634,-0.56441 -2.90106,-2.15461 -3.5009,-3.75814 -0.83226,-2.22484 0.24265,-7.12209 0.24265,-7.12209 l -8.27133,8.10432 c 0,0 -5.70707,0.94745 -8.29671,-0.0232 -6.36759,-2.38678 -15.41176,-13.36652 -15.41176,-13.36652 l -12.32963,-9.16139 5.00887,-8.45668 6.93541,-11.98029 10.4031,5.28541 21.5767,5.28544 -20.03552,-1.76183 -11.31146,-3.04182 -4.48588,8.67962 0.38535,3.87597 31.97981,0.35237 -25.8151,2.81889 3.08235,5.99014 7.70611,2.46654 4.62352,9.1614 6.93541,-1.40945 11.94428,-10.21849 -1.54118,10.57086 2.69701,3.87597 15.89722,-7.31525 0.28524,-7.13158 -7.32053,-1.05707 -5.39423,-5.99015 8.86193,2.81889 5.77936,-1.05708 z"
         id="path3755-6-5-1-9" />
      <path
         style="fill:#000000;fill-opacity:1;stroke:none;stroke-width:1.00000024px;stroke-linecap:butt;stroke-linejoin:miter;stroke-opacity:0"
         d="m 811.33335,575.64091 c -13.61377,-3.38716 -27.22775,-3.3856 -40.84151,-15.5039 l -8.09146,-9.51378 14.25617,8.80905 -2.31189,-7.3996 36.98869,23.60823 z"
         id="path3785-6-6-0-2" />
      <path
         style="fill:#000000;fill-opacity:1;stroke:none;stroke-width:1.00000024px;stroke-linecap:butt;stroke-linejoin:miter;stroke-opacity:0"
         d="m 532.36921,601.72907 c -17.54179,29.1033 36.60905,55.10386 46.11686,2.61705 -22.30095,46.85617 -52.70619,22.54568 -46.11686,-2.61705 z"
         id="path3787-6-4-3-3" />
      <path
         style="fill:#000000;fill-opacity:1;stroke:none;stroke-width:1.00000024px;stroke-linecap:butt;stroke-linejoin:miter;stroke-opacity:0"
         d="m 536.91718,657.14468 c 29.70803,4.67361 27.9945,-14.10781 25.55364,-25.48441 6.00371,10.32339 8.91933,31.32147 -18.53458,28.89978 27.92829,11.2488 47.1169,-5.71527 47.39179,-42.28338 -3.87506,17.76313 5.95953,34.95637 -18.10922,53.55894 -0.77418,6.92979 -0.70701,13.85955 -5.39399,20.78934 -6.93483,3.13678 -14.68347,3.79949 -22.52454,3.85508 7.95622,-1.33335 16.48212,-2.1716 20.21266,-7.02634 4.91786,-7.63451 2.87647,-15.269 3.08235,-22.9035 -11.07701,2.45069 -22.63624,2.10328 -31.67811,-9.40551 z"
         id="path3789-6-9-2-3" />
      <path
         style="fill:#000000;fill-opacity:1;stroke:none;stroke-width:1.00000024px;stroke-linecap:butt;stroke-linejoin:miter;stroke-opacity:0"
         d="m 551.22187,616.57639 c 3.71665,-11.80688 10.85671,-22.42513 22.76765,-31.42172 10.7396,-3.84006 21.03669,-7.3286 30.77284,-24.93378 1.468,-15.57095 13.25847,-22.53694 25.86599,-27.92045 28.88332,-10.34735 29.5356,-13.09659 37.75939,-21.84642 -3.20453,7.43538 -5.58112,18.79263 -31.59445,28.18893 -11.84354,3.72838 -19.38755,10.50122 -29.28279,34.17907 -5.66288,7.02998 -4.90722,13.60847 -22.73252,21.49405 -10.91698,0.81406 -22.63935,9.2566 -33.55611,22.26032 z"
         id="path3791-7-8-5-4" />
      <path
         style="fill:#000000;fill-opacity:1;stroke:none;stroke-width:1.00000024px;stroke-linecap:butt;stroke-linejoin:miter;stroke-opacity:0"
         d="m 515.89357,291.93865 c -10.09487,-7.76577 -22.96294,-4.23481 -26.9642,5.23751 12.73235,-4.82887 19.68211,3.3814 20.71056,5.96664 9.63079,1.02362 10.25189,-7.16535 6.25364,-11.20415 z"
         id="path3793-9-6-4-0-1" />
      <path
         style="fill:#000000;fill-opacity:1;stroke:none;stroke-width:1.00000024px;stroke-linecap:butt;stroke-linejoin:miter;stroke-opacity:0"
         d="m 516.85324,296.46896 c -5.66842,-9.50923 -14.81613,-8.66539 -25.86674,-2.15854 11.92182,-6.02959 20.02162,-4.24186 25.86674,2.15854 z"
         id="path3795-4-7-3-3-1" />
      <path
         style="fill:#000000;fill-opacity:1;stroke:none;stroke-width:1.00000024px;stroke-linecap:butt;stroke-linejoin:miter;stroke-opacity:0"
         d="m 509.70919,303.18543 c -5.63648,-8.50691 -13.13138,-7.99309 -20.93314,-5.98903 10.983,-7.20379 20.37092,-6.94659 28.65436,2.47554 -1.57845,2.38658 -3.93441,3.97571 -7.72122,3.51349 z"
         id="path3797-8-7-2-2-3" />
      <path
         style="fill:#000000;fill-opacity:1;stroke:none;stroke-width:1.00000024px;stroke-linecap:butt;stroke-linejoin:miter;stroke-opacity:0"
         d="m 496.60907,301.47359 c -10.45498,-7.35647 -23.14287,-3.31648 -26.68932,6.30618 12.49036,-5.33125 19.82432,2.5945 20.97505,5.13633 9.67038,0.63917 9.90103,-7.56678 5.71427,-11.44251 z"
         id="path3793-2-1-5-2-8" />
      <path
         style="fill:#000000;fill-opacity:1;stroke:none;stroke-width:1.00000024px;stroke-linecap:butt;stroke-linejoin:miter;stroke-opacity:0"
         d="m 497.78342,305.96135 c -6.1156,-9.2745 -15.21445,-8.06722 -25.94478,-1.12652 11.62331,-6.49858 19.80069,-5.03506 25.94478,1.12652 z"
         id="path3795-45-9-3-6-7" />
      <path
         style="fill:#000000;fill-opacity:1;stroke:none;stroke-width:1.00000024px;stroke-linecap:butt;stroke-linejoin:miter;stroke-opacity:0"
         d="m 490.96613,312.95594 c -6.03618,-8.2744 -13.49959,-7.46265 -21.19853,-5.14983 10.62937,-7.63429 20.1448,-7.95615 28.86871,1.12719 -1.46314,2.4472 -3.86507,4.33363 -7.67018,4.02264 z"
         id="path3797-5-1-8-3-4" />
      <path
         style="fill:#000000;fill-opacity:1;stroke:none;stroke-width:1.00000024px;stroke-linecap:butt;stroke-linejoin:miter;stroke-opacity:0"
         d="m 494.8949,336.80352 c -13.13993,-1.06386 -21.46413,8.57998 -18.79887,18.43763 7.3988,-10.63558 18.24192,-7.55753 20.70618,-5.97976 8.53008,-4.21484 3.90145,-11.24792 -1.90731,-12.45787 z"
         id="path3793-7-6-3-3-2" />
      <path
         style="fill:#000000;fill-opacity:1;stroke:none;stroke-width:1.00000024px;stroke-linecap:butt;stroke-linejoin:miter;stroke-opacity:0"
         d="m 498.5231,340.01045 c -10.6083,-4.81424 -17.57126,0.67657 -22.53984,11.80411 5.98152,-11.19368 13.73718,-13.97945 22.53984,-11.80411 z"
         id="path3795-1-27-2-6-7" />
      <path
         style="fill:#000000;fill-opacity:1;stroke:none;stroke-width:1.00000024px;stroke-linecap:butt;stroke-linejoin:miter;stroke-opacity:0"
         d="m 496.88558,349.25994 c -9.95337,-4.01012 -15.76955,0.34325 -20.90232,6.07826 4.476,-11.66288 12.4443,-16.73115 25.13984,-13.36031 0.2038,2.78291 -0.84578,5.67367 -4.23752,7.28205 z"
         id="path3797-1-2-7-1-7" />
      <path
         style="fill:#000000;fill-opacity:1;stroke:none;stroke-width:1.00000024px;stroke-linecap:butt;stroke-linejoin:miter;stroke-opacity:0"
         d="m 518.97661,374.4084 c -6.98565,10.23324 -20.41739,10.50162 -27.41648,2.61844 13.73974,1.00464 17.584,-8.76493 17.69099,-11.51422 8.81676,-3.68863 12.16799,3.9265 9.72549,8.89578 z"
         id="path3793-27-7-0-5-9" />
      <path
         style="fill:#000000;fill-opacity:1;stroke:none;stroke-width:1.00000024px;stroke-linecap:butt;stroke-linejoin:miter;stroke-opacity:0"
         d="m 518.36269,369.82814 c -2.18729,10.64408 -11.17382,12.41994 -23.87954,9.34499 13.37338,2.37541 20.47645,-1.60859 23.87954,-9.34499 z"
         id="path3795-6-6-6-8-3" />
      <path
         style="fill:#000000;fill-opacity:1;stroke:none;stroke-width:1.00000024px;stroke-linecap:butt;stroke-linejoin:miter;stroke-opacity:0"
         d="m 509.30275,365.45252 c -2.49482,9.68154 -9.79798,11.30547 -17.89546,11.59829 12.8764,3.75704 21.51145,0.81256 26.2158,-10.48579 -2.30609,-1.82546 -4.8737,-2.61969 -8.32034,-1.1125 z"
         id="path3797-14-5-8-2-1" />
      <path
         style="fill:#000000;fill-opacity:1;stroke:none;stroke-width:1.00000024px;stroke-linecap:butt;stroke-linejoin:miter;stroke-opacity:0"
         d="m 499.25419,461.38213 c -13.13994,-1.06386 -21.46436,8.57999 -18.79886,18.43763 7.3988,-10.63558 18.24168,-7.55753 20.70594,-5.97977 8.53031,-4.21484 3.90145,-11.24791 -1.90708,-12.45786 z"
         id="path3793-3-13-0-1-9" />
      <path
         style="fill:#000000;fill-opacity:1;stroke:none;stroke-width:1.00000024px;stroke-linecap:butt;stroke-linejoin:miter;stroke-opacity:0"
         d="m 502.88238,464.58907 c -10.60852,-4.81425 -17.57124,0.67656 -22.54006,11.80411 5.98152,-11.19368 13.73742,-13.97947 22.54006,-11.80411 z"
         id="path3795-2-9-1-9-8" />
      <path
         style="fill:#000000;fill-opacity:1;stroke:none;stroke-width:1.00000024px;stroke-linecap:butt;stroke-linejoin:miter;stroke-opacity:0"
         d="m 501.24488,473.83856 c -9.95338,-4.01012 -15.76979,0.34324 -20.90256,6.07825 4.476,-11.66287 12.31112,-16.74006 25.00666,-13.36921 0.20379,2.7829 -0.7126,5.68257 -4.1041,7.29096 z"
         id="path3797-2-9-1-3-6" />
      <path
         style="fill:#000000;fill-opacity:1;stroke:none;stroke-width:1.00000024px;stroke-linecap:butt;stroke-linejoin:miter;stroke-opacity:0"
         d="m 499.79911,483.80629 c -13.14017,-1.06385 -21.46437,8.57999 -18.79887,18.43763 7.39857,-10.63558 18.24168,-7.55753 20.70595,-5.97977 8.53031,-4.21484 3.90145,-11.2479 -1.90708,-12.45786 z"
         id="path3793-8-5-9-9-5" />
      <path
         style="fill:#000000;fill-opacity:1;stroke:none;stroke-width:1.00000024px;stroke-linecap:butt;stroke-linejoin:miter;stroke-opacity:0"
         d="m 503.42729,487.01323 c -10.60851,-4.81425 -17.57124,0.67657 -22.54006,11.80411 5.98152,-11.19368 13.73719,-13.97946 22.54006,-11.80411 z"
         id="path3795-5-92-5-7-0" />
      <path
         style="fill:#000000;fill-opacity:1;stroke:none;stroke-width:1.00000024px;stroke-linecap:butt;stroke-linejoin:miter;stroke-opacity:0"
         d="m 501.78979,496.26272 c -9.95339,-4.01012 -15.76979,0.34324 -20.90256,6.07825 4.476,-11.66287 12.44796,-16.67163 25.1435,-13.30079 0.20378,2.7829 -0.84944,5.61415 -4.24118,7.22254 z"
         id="path3797-7-6-3-2-2" />
      <path
         style="fill:#000000;fill-opacity:1;stroke:none;stroke-width:1.00000024px;stroke-linecap:butt;stroke-linejoin:miter;stroke-opacity:0"
         d="m 504.44279,510.57746 c -11.49919,5.9112 -12.41024,18.16939 -4.121,24.92595 -0.46548,-12.59828 10.38273,-15.66074 13.39074,-15.63211 4.43456,-7.88501 -3.72939,-11.29664 -9.26974,-9.29384 z"
         id="path3793-1-5-6-1-8" />
      <path
         style="fill:#000000;fill-opacity:1;stroke:none;stroke-width:1.00000024px;stroke-linecap:butt;stroke-linejoin:miter;stroke-opacity:0"
         d="m 509.41761,511.349 c -11.72728,1.50872 -14.08038,9.63671 -11.30581,21.38543 -1.97978,-12.32655 2.69863,-18.6323 11.30581,-21.38543 z"
         id="path3795-8-3-3-3-6" />
      <path
         style="fill:#000000;fill-opacity:1;stroke:none;stroke-width:1.00000024px;stroke-linecap:butt;stroke-linejoin:miter;stroke-opacity:0"
         d="m 513.78062,519.82696 c -10.69005,1.83377 -12.79998,8.43087 -13.49218,15.81487 -3.5117,-11.93587 0.3106,-20.07239 12.86834,-23.85042 1.88786,2.19057 2.42855,4.95614 0.6243,8.03555 z"
         id="path3797-9-2-1-2-0" />
      <path
         style="fill:#000000;fill-opacity:1;stroke:none;stroke-width:1.00000024px;stroke-linecap:butt;stroke-linejoin:miter;stroke-opacity:0"
         d="m 545.31624,522.81965 c 1.66137,11.96764 -8.56041,19.94095 -19.43293,17.87929 11.34054,-7.1651 7.2214,-17.81754 5.40395,-20.00964 4.28171,-7.95537 12.48642,-3.13204 14.02898,2.13035 z"
         id="path3793-95-4-5-0-2" />
      <path
         style="fill:#000000;fill-opacity:1;stroke:none;stroke-width:1.00000024px;stroke-linecap:butt;stroke-linejoin:miter;stroke-opacity:0"
         d="m 541.67438,519.62571 c 5.6631,9.51188 -0.0717,16.0833 -12.0427,21.04634 12.00427,-5.89111 14.75383,-13.08453 12.0427,-21.04634 z"
         id="path3795-43-4-3-9-4" />
      <path
         style="fill:#000000;fill-opacity:1;stroke:none;stroke-width:1.00000024px;stroke-linecap:butt;stroke-linejoin:miter;stroke-opacity:0"
         d="m 531.80184,521.30119 c 4.7597,8.94374 0.0502,14.5963 -6.0202,19.50461 12.57372,-4.53317 17.0532,-12.42267 12.88821,-23.89663 -3.04877,-0.0813 -5.23929,1.23155 -6.86801,4.39202 z"
         id="path3797-12-4-4-2-8" />
      <path
         style="fill:#000000;fill-opacity:1;stroke:none;stroke-width:1.00000024px;stroke-linecap:butt;stroke-linejoin:miter;stroke-opacity:0"
         d="m 523.22938,686.62029 c -13.13994,-1.06385 -21.46414,8.57998 -18.79887,18.43763 7.3988,-10.63558 18.24192,-7.55753 20.70617,-5.97976 8.53008,-4.21484 3.90146,-11.24792 -1.9073,-12.45787 z"
         id="path3793-5-2-6-4-4" />
      <path
         style="fill:#000000;fill-opacity:1;stroke:none;stroke-width:1.00000024px;stroke-linecap:butt;stroke-linejoin:miter;stroke-opacity:0"
         d="m 526.85757,689.82722 c -10.6083,-4.81425 -17.57126,0.67657 -22.53984,11.80411 5.98151,-11.19368 13.73719,-13.97945 22.53984,-11.80411 z"
         id="path3795-09-41-1-7-4" />
      <path
         style="fill:#000000;fill-opacity:1;stroke:none;stroke-width:1.00000024px;stroke-linecap:butt;stroke-linejoin:miter;stroke-opacity:0"
         d="m 525.22005,699.07671 c -9.95338,-4.01012 -15.76954,0.34325 -20.90232,6.07826 4.47601,-11.66288 12.54811,-16.43442 25.24364,-13.06358 0.20379,2.78291 -0.94957,5.37694 -4.34132,6.98532 z"
         id="path3797-00-1-7-4-6" />
      <path
         style="fill:#000000;fill-opacity:1;stroke:none;stroke-width:1.00000024px;stroke-linecap:butt;stroke-linejoin:miter;stroke-opacity:0"
         d="m 516.69067,706.05454 c -13.13994,-1.06385 -21.46414,8.57999 -18.79887,18.43764 7.3988,-10.63558 18.24192,-7.55753 20.70617,-5.97977 8.53009,-4.21484 3.90147,-11.2479 -1.9073,-12.45787 z"
         id="path3793-38-5-0-3-0" />
      <path
         style="fill:#000000;fill-opacity:1;stroke:none;stroke-width:1.00000024px;stroke-linecap:butt;stroke-linejoin:miter;stroke-opacity:0"
         d="m 520.31886,709.26148 c -10.6083,-4.81425 -17.57126,0.67656 -22.53984,11.80412 5.98153,-11.19368 13.7372,-13.97947 22.53984,-11.80412 z"
         id="path3795-9-95-1-9-6" />
      <path
         style="fill:#000000;fill-opacity:1;stroke:none;stroke-width:1.00000024px;stroke-linecap:butt;stroke-linejoin:miter;stroke-opacity:0"
         d="m 518.68134,718.51098 c -9.95338,-4.01012 -15.76954,0.34323 -20.90232,6.07825 4.47601,-11.66287 12.92666,-16.05588 25.62219,-12.68504 0.20379,2.78291 -1.32812,4.9984 -4.71987,6.60679 z"
         id="path3797-34-1-5-9-6" />
      <path
         style="fill:#000000;fill-opacity:1;stroke:none;stroke-width:1.00000024px;stroke-linecap:butt;stroke-linejoin:miter;stroke-opacity:0"
         d="m 527.61669,717.61034 c -12.75806,3.06657 -17.02148,14.71803 -10.86465,23.16863 3.02538,-12.29811 14.36755,-12.75836 17.2702,-12.03658 6.46669,-6.60667 -0.49188,-11.79168 -6.40555,-11.13205 z"
         id="path3793-60-0-2-6-1" />
      <path
         style="fill:#000000;fill-opacity:1;stroke:none;stroke-width:1.00000024px;stroke-linecap:butt;stroke-linejoin:miter;stroke-opacity:0"
         d="m 534.10051,728.71519 c -10.85029,-0.6922 -14.71168,5.20466 -17.41888,12.19004 -0.10415,-12.36 5.84244,-19.21295 19.0361,-19.97115 1.22252,2.5553 0.97881,5.21775 -1.61722,7.78111 z"
         id="path3797-18-4-9-6-8" />
      <path
         style="fill:#000000;fill-opacity:1;stroke:none;stroke-width:1.00000024px;stroke-linecap:butt;stroke-linejoin:miter;stroke-opacity:0"
         d="m 574.36283,728.64027 c 2.37209,11.86707 -7.35944,20.33799 -18.33848,18.82129 10.89661,-7.71969 6.54379,-17.30911 4.59828,-19.40734 3.80118,-8.15698 11.88639,-4.59165 13.7402,0.58605 z"
         id="path3793-63-5-0-2-4" />
      <path
         style="fill:#000000;fill-opacity:1;stroke:none;stroke-width:1.00000024px;stroke-linecap:butt;stroke-linejoin:miter;stroke-opacity:0"
         d="m 570.53617,725.6326 c 6.22144,9.21547 0.88603,16.06298 -10.77063,21.61531 11.63512,-6.4807 13.9521,-13.80048 10.77063,-21.61531 z"
         id="path3795-7-30-5-0-9" />
      <path
         style="fill:#000000;fill-opacity:1;stroke:none;stroke-width:1.00000024px;stroke-linecap:butt;stroke-linejoin:miter;stroke-opacity:0"
         d="m 560.61638,727.97802 c 5.28561,8.69325 1.08287,14.39166 -4.68744,19.59532 12.28517,-5.15312 16.36148,-13.08232 11.51864,-24.33164 -3.04876,0.0707 -5.39308,1.49936 -6.8312,4.73632 z"
         id="path3797-88-8-1-9-6" />
      <path
         style="fill:#000000;fill-opacity:1;stroke:none;stroke-width:1.00000024px;stroke-linecap:butt;stroke-linejoin:miter;stroke-opacity:0"
         d="m 854.46161,445.96987 c -26.92253,1.4607 -21.68474,13.0043 -22.31458,25.354 6.71447,15.28696 4.44071,28.81878 -7.33563,40.64542 3.68283,14.65129 8.94871,29.26786 -8.41323,42.60083 8.82928,0.23064 11.59866,4.56107 13.19077,11.4103 -5.68958,-4.11774 -10.7524,-8.67266 -23.13277,-2.96733 14.54842,-16.85826 16.82053,-36.34974 13.99615,-54.53201 5.32149,-11.62734 10.10467,-23.25468 5.44885,-34.88202 -6.20982,-32.27777 17.31184,-34.0263 28.56044,-27.62919 z"
         id="path4022-9-8-6-3" />
      <path
         style="fill:#000000;fill-opacity:1;stroke:none;stroke-width:1.00000024px;stroke-linecap:butt;stroke-linejoin:miter;stroke-opacity:0"
         d="m 849.05797,308.79381 c -0.97258,13.66767 3.81228,23.18651 -10.62429,46.70472 -33.95237,34.1721 -62.112,64.0651 -40.32203,103.15109 l 1.08959,-8.96964 c -11.8095,-22.26735 6.2365,-44.67708 17.98162,-61.29271 46.20097,-37.70297 34.71604,-70.51552 31.87511,-79.59346 z"
         id="path4024-13-3-2-7" />
      <path
         style="fill:#000000;fill-opacity:1;stroke:none;stroke-width:1.00000024px;stroke-linecap:butt;stroke-linejoin:miter;stroke-opacity:0"
         d="m 656.08969,227.31418 c 22.25365,-7.77715 50.9631,-26.92482 78.81407,-6.85884 10.93005,1.33094 43.00346,-11.73661 26.84555,20.75744 4.68535,19.76646 4.66879,38.46545 17.12302,58.23192 -2.7385,1.66356 -9.17842,1.87545 -13.29772,-5.70171 l -7.24034,-52.35848 -7.62853,10.96293 c 6.33769,-15.76654 20.07813,-36.67799 -8.17345,-28.40391 l -13.07741,0 c -17.87995,-19.41142 -47.51419,-1.51673 -73.36519,3.37065 z"
         id="path4026-4-6-3-8" />
      <path
         style="fill:#000000;fill-opacity:1;stroke:none;stroke-width:1.00000024px;stroke-linecap:butt;stroke-linejoin:miter;stroke-opacity:0"
         d="m 703.02656,255.08816 c 21.80642,19.15114 20.67815,42.54901 1.90707,58.30279 24.26374,-14.44828 22.0607,-45.0487 -1.90707,-58.30279 z"
         id="path3646-2-7-8-0-8" />
      <path
         style="fill:#000000;fill-opacity:1;stroke:none;stroke-width:1.00000024px;stroke-linecap:butt;stroke-linejoin:miter;stroke-opacity:0"
         d="m 705.23029,473.10369 c 15.99673,14.2888 44.34834,26.06681 43.92385,43.69284 l 27.74162,26.07476 -22.34739,-4.22834 13.87082,35.23616 -16.95317,-14.09447 2.31188,20.43697 -7.70611,-6.3425 6.93541,25.37001 15.41199,15.50393 22.34739,11.98029 14.64128,0 10.01776,20.43696 -15.41199,-15.50391 -10.78846,-0.70471 8.47659,14.09444 -28.5121,-23.96056 -13.87058,-5.63778 1.54117,10.57083 -5.39423,11.9803 -2.31188,-15.50391 -13.87057,-17.61809 -0.77071,17.61809 -1.54118,19.73223 -6.1647,-33.12199 -9.24729,-21.8464 c 0,0 3.85306,-19.02753 3.85306,-22.55115 0,-3.52361 0,-30.30308 0,-30.30308 l -3.85306,-17.61808 -52.40066,-43.69284 34.67703,7.04723 -5.39423,-15.5039 10.78846,8.45667 z"
         id="path4050-46-8-3-2" />
      <g
         id="g3301">
        <path
           id="path3747-0-1-4-8"
           d="m 745.83256,678.88284 c 9.09422,-10.27514 3.69351,-17.01537 -2.31165,-23.60822 -5.78837,-7.04723 -2.93297,-14.09448 -1.92652,-21.1417 4.37365,-7.04723 -0.82814,-14.09446 -3.08235,-21.14169 4.2442,5.98645 8.68802,11.85133 6.93541,21.49406 -3.69443,7.04722 -1.49787,14.09445 1.92629,21.14168 5.29419,4.08776 12.72981,13.6638 -1.54118,23.25587 z"
           style="fill:#000000;fill-opacity:1;stroke:none;stroke-width:1.00000024px;stroke-linecap:butt;stroke-linejoin:miter;stroke-opacity:0" />
        <path
           id="path3749-1-6-7-9"
           d="m 760.8592,638.00891 c 1.78722,12.03386 7.59127,20.22466 20.80622,17.97043 l 0.38536,8.45667 c -8.92053,14.09446 -21.00568,28.46424 -31.92522,42.5587 l -20.13094,0.4382 21.61753,2.8101 35.4475,-46.15934 -0.38535,-10.21849 3.46771,0 4.23817,5.63778 6.9354,0.70472 8.09123,-3.52361 1.15605,-3.52362 -2.69722,-5.99015 -1.15583,6.3425 -6.9354,3.52361 -4.23817,-2.11417 -3.85307,-3.87595 -2.69699,-4.22834 -2.31188,4.58068 -4.62352,0 -7.70612,-12.33264 1.54118,8.80902 -7.70588,-7.75194 -1.15582,-5.28544 0,-10.21846 -1.54118,14.79918 z"
           style="fill:#000000;fill-opacity:1;stroke:none;stroke-width:1.00000024px;stroke-linecap:butt;stroke-linejoin:miter;stroke-opacity:0" />
        <path
           id="path3757-2-7-1-5"
           d="m 710.38507,699.31979 7.7061,8.80906 13.48546,9.16139 -19.26504,-9.51375 -6.1647,-0.70472 -10.01775,10.57084 c 0,0 6.09363,0.62302 8.61927,2.17224 1.85459,1.13759 2.55777,5.69804 3.71036,5.57972 l 6.55006,-4.22834 16.95315,1.05707 -17.72386,2.81892 -0.54249,5.79393 c 0,0 6.1058,0.40794 8.94696,1.43267 1.73959,0.62743 4.00145,4.16913 6.10751,4.74205 l 11.73099,1.49594 6.94328,-3.26934 c 0,0 -3.3691,8.63057 -7.2435,10.0913 -8.81603,3.32383 -27.53936,-6.3652 -27.53936,-6.3652 l -0.0666,-0.022 -6.81343,-7.90923 -15.41176,-10.92322 5.77936,-10.21846 14.25616,-10.57087 z"
           style="fill:#000000;fill-opacity:1;stroke:none;stroke-width:1.00000024px;stroke-linecap:butt;stroke-linejoin:miter;stroke-opacity:0" />
        <path
           id="path3759-0-4-9-4"
           d="m 835.20512,655.97496 c 1.1894,19.81455 -18.51344,20.95055 -24.25713,9.16578 7.83441,4.44273 16.39857,10.89493 24.233,-9.13464 z"
           style="fill:#000000;fill-opacity:1;stroke:none;stroke-width:1.00000024px;stroke-linecap:butt;stroke-linejoin:miter;stroke-opacity:0" />
        <path
           id="path3761-3-8-8-3"
           d="m 788.85564,606.48542 c -21.66373,10.97546 -26.61135,-3.08982 -32.61996,-17.80713 7.91052,9.82793 11.7041,22.85607 32.61996,17.80713 z"
           style="fill:#000000;fill-opacity:1;stroke:none;stroke-width:1.00000024px;stroke-linecap:butt;stroke-linejoin:miter;stroke-opacity:0" />
        <path
           id="path3761-0-5-5-1-1"
           d="m 788.86145,591.27089 c -19.71802,10.97546 -25.63638,-7.42138 -32.31057,-22.13869 8.37632,9.87968 13.22755,27.39129 32.31057,22.13869 z"
           style="fill:#000000;fill-opacity:1;stroke:none;stroke-width:1.00000024px;stroke-linecap:butt;stroke-linejoin:miter;stroke-opacity:0" />
        <path
           id="path3793-34-2-0-7-6"
           d="m 707.94859,696.08825 c -13.13994,-1.06386 -21.46436,8.57999 -18.79886,18.43763 7.3988,-10.63558 18.24168,-7.55753 20.70594,-5.97976 8.53031,-4.21485 3.90169,-11.24792 -1.90708,-12.45787 z"
           style="fill:#000000;fill-opacity:1;stroke:none;stroke-width:1.00000024px;stroke-linecap:butt;stroke-linejoin:miter;stroke-opacity:0" />
        <path
           id="path3795-11-7-3-4-5"
           d="m 711.57678,699.29519 c -10.60828,-4.81425 -17.57125,0.67656 -22.53984,11.8041 5.98153,-11.19367 13.7372,-13.97945 22.53984,-11.8041 z"
           style="fill:#000000;fill-opacity:1;stroke:none;stroke-width:1.00000024px;stroke-linecap:butt;stroke-linejoin:miter;stroke-opacity:0" />
        <path
           id="path3797-3-9-1-5-0"
           d="m 709.66561,708.88676 c -10.80445,-2.4846 -16.1267,-1.51283 -20.62867,5.73618 4.47602,-11.66288 12.65658,-16.27685 25.35212,-12.90601 0.20378,2.7829 -1.06536,8.01105 -4.72345,7.16983 z"
           style="fill:#000000;fill-opacity:1;stroke:none;stroke-width:1.00000024px;stroke-linecap:butt;stroke-linejoin:miter;stroke-opacity:0" />
        <path
           id="path3793-4-2-7-0-9"
           d="m 695.41609,710.53937 c -13.13994,-1.06386 -21.46437,8.57999 -18.79887,18.43763 7.3988,-10.63558 18.24169,-7.55753 20.70595,-5.97976 8.53031,-4.21485 3.90169,-11.24792 -1.90708,-12.45787 z"
           style="fill:#000000;fill-opacity:1;stroke:none;stroke-width:1.00000024px;stroke-linecap:butt;stroke-linejoin:miter;stroke-opacity:0" />
        <path
           id="path3795-27-37-9-3-0"
           d="m 699.04428,713.74631 c -10.60852,-4.81425 -17.57125,0.67656 -22.54007,11.8041 5.98152,-11.19367 13.73743,-13.97945 22.54007,-11.8041 z"
           style="fill:#000000;fill-opacity:1;stroke:none;stroke-width:1.00000024px;stroke-linecap:butt;stroke-linejoin:miter;stroke-opacity:0" />
        <path
           id="path3797-79-3-0-2-0"
           d="m 697.40677,722.99579 c -9.95337,-4.01012 -15.76979,0.34325 -20.90256,6.07827 4.47624,-11.66288 12.68252,-16.32436 25.37806,-12.95351 0.20379,2.7829 -1.08399,5.26687 -4.4755,6.87524 z"
           style="fill:#000000;fill-opacity:1;stroke:none;stroke-width:1.00000024px;stroke-linecap:butt;stroke-linejoin:miter;stroke-opacity:0" />
        <path
           id="path3793-98-1-3-9-6"
           d="m 710.67315,726.48543 c -13.13994,-1.06386 -21.46437,8.57999 -18.79886,18.43763 7.3988,-10.63558 18.24167,-7.55753 20.70593,-5.97976 8.53031,-4.21485 3.9017,-11.24792 -1.90707,-12.45787 z"
           style="fill:#000000;fill-opacity:1;stroke:none;stroke-width:1.00000024px;stroke-linecap:butt;stroke-linejoin:miter;stroke-opacity:0" />
        <path
           id="path3795-65-5-5-7-1"
           d="m 714.30134,729.69237 c -10.60852,-4.81425 -17.57126,0.67656 -22.54006,11.80411 5.98152,-11.19368 13.73742,-13.97946 22.54006,-11.80411 z"
           style="fill:#000000;fill-opacity:1;stroke:none;stroke-width:1.00000024px;stroke-linecap:butt;stroke-linejoin:miter;stroke-opacity:0" />
        <path
           id="path3797-0-7-2-8-3"
           d="m 712.67696,738.93747 c -9.95337,-4.01012 -15.78291,0.34763 -20.91568,6.08265 4.476,-11.66288 12.92688,-16.05588 25.62242,-12.68504 0.20378,2.78291 -1.31522,4.994 -4.70674,6.60239 z"
           style="fill:#000000;fill-opacity:1;stroke:none;stroke-width:1.00000024px;stroke-linecap:butt;stroke-linejoin:miter;stroke-opacity:0" />
        <path
           id="path3793-6-8-9-0-8"
           d="m 739.93025,738.38045 c -2.55735,11.81717 -14.5966,16.34517 -23.81423,11.18351 13.46166,-3.43185 7.07694,-13.75277 12.48928,-17.39695 4.43448,-2.98578 12.3707,-3.41537 11.32495,6.21344 z"
           style="fill:#000000;fill-opacity:1;stroke:none;stroke-width:1.00000024px;stroke-linecap:butt;stroke-linejoin:miter;stroke-opacity:0" />
        <path
           id="path3795-0-58-1-1-9"
           d="m 737.69479,734.28223 c 1.9293,10.6746 -5.53967,15.20051 -18.14974,16.36315 12.95676,-2.03102 17.91352,-8.02725 18.14974,-16.36315 z"
           style="fill:#000000;fill-opacity:1;stroke:none;stroke-width:1.00000024px;stroke-linecap:butt;stroke-linejoin:miter;stroke-opacity:0" />
        <path
           id="path3797-24-3-2-1-3"
           d="m 727.9019,733.06486 c 1.29847,9.87013 -4.70528,13.71764 -11.9151,16.57021 13.01442,-0.57752 19.7907,-6.52034 19.8956,-18.60966 -2.75374,-0.9771 -6.29644,-0.12915 -7.9805,2.03939 -10e-6,2e-5 0,6e-5 0,6e-5 z"
           style="fill:#000000;fill-opacity:1;stroke:none;stroke-width:1.00000024px;stroke-linecap:butt;stroke-linejoin:miter;stroke-opacity:0" />
        <path
           id="path4052-3-6-5-9"
           d="m 821.20263,672.65071 c -2.66863,9.45156 -8.06254,22.01243 6.49874,25.02934 -16.695,3.19524 -36.39008,3.7341 -37.21313,29.60925 L 787.684,714.47135 c -14.22028,23.63064 -29.83587,26.08994 -40.34682,20.79821 23.40735,-1.96693 30.61715,-17.24617 36.87912,-34.89267 l 2.31187,8.10433 c 7.75336,-7.83085 15.51644,-15.58248 24.27392,-15.15156 -3.54343,-9.86552 2.69999,-15.48736 10.40054,-20.67895 z"
           style="fill:#000000;fill-opacity:1;stroke:none;stroke-width:1.00000024px;stroke-linecap:butt;stroke-linejoin:miter;stroke-opacity:0" />
      </g>
      <path
         style="fill:#000000;fill-opacity:1;stroke:none;stroke-width:1.00000024px;stroke-linecap:butt;stroke-linejoin:miter;stroke-opacity:0"
         d="m 715.97954,237.72466 -7.524,-4.15625 -5.75838,-5.00328 -5.9452,-2.76083 -6.87635,1.14563 -4.36696,0.0957 -0.74198,-2.71948 1.30212,-2.54672 -2.74219,2.39175 0.23072,3.0416 1.48566,1.78609 2.27633,0.29206 5.66852,-1.18134 4.04158,0.17567 3.20458,2.23022 5.38718,3.64355 10.35837,3.56559 z"
         id="path2858-7-6-8-7-1" />
      <path
         style="fill:#000000;fill-opacity:1;stroke:none;stroke-width:1.00000024px;stroke-linecap:butt;stroke-linejoin:miter;stroke-opacity:0"
         d="m 708.74044,235.23515 -6.37328,3.09892 -6.55056,0.14364 -3.94789,-2.02745 -2.46065,-3.16366 -1.76336,-4.26703 6.55095,-0.87422 3.2515,0.93907 2.69371,1.82176 3.99426,2.19738 z"
         id="path3632-7-0-5-4-3" />
      <path
         style="fill:#000000;fill-opacity:1;fill-rule:evenodd;stroke:none;stroke-width:0;stroke-linecap:square;stroke-linejoin:round;stroke-miterlimit:4;stroke-opacity:0;stroke-dasharray:none;stroke-dashoffset:0"
         id="path3634-8-5-4-0-5"
         d="m 77.846916,158.01384 a 1.427322,1.3887458 0 1 1 -2.854644,0 1.427322,1.3887458 0 1 1 2.854644,0 z"
         transform="matrix(-3.2553259,0.88816497,0.86819538,3.1821328,808.79025,-338.95397)" />
      <path
         style="fill:#000000;fill-opacity:1;stroke:none;stroke-width:1.00000024px;stroke-linecap:butt;stroke-linejoin:miter;stroke-opacity:0"
         d="m 687.62621,229.02121 c 4.19262,13.82514 12.93353,11.65873 21.1475,6.19834 -9.95412,4.29075 -16.53302,1.87436 -21.1475,-6.19834 z"
         id="path3636-7-4-6-9-9" />
      <path
         transform="matrix(-2.4089413,0.6572421,0.60105836,2.2030151,785.2056,-164.90325)"
         style="fill:#000000;fill-opacity:1;fill-rule:evenodd;stroke:none;stroke-width:0;stroke-linecap:square;stroke-linejoin:round;stroke-miterlimit:4;stroke-opacity:0;stroke-dasharray:none;stroke-dashoffset:0"
         id="path3638-3-9-7-4-8"
         d="m 76.805357,156.89513 a 0.38576269,0.23145762 0 1 1 -0.771526,0 0.38576269,0.23145762 0 1 1 0.771526,0 z" />
      <path
         style="fill:#000000;fill-opacity:1;stroke:none;stroke-width:1.00000024px;stroke-linecap:butt;stroke-linejoin:miter;stroke-opacity:0"
         d="m 716.13608,237.77764 -7.4019,-3.92002 -5.73501,-5.28356 -6.4331,-2.71904 -6.66726,1.1799 -4.45992,0.12108 -0.99696,-2.92385 1.88273,-2.6138 -0.81462,3.2355 1.11432,1.52217 9.87298,-1.50667 7.10645,2.99188 5.06144,5.01079 7.54431,4.92997 z"
         id="path3640-0-6-7-8-4" />
    </g>
  </g>

  </g>
</svg>