<svg version="1.1" id="Layer_1" xmlns="http://www.w3.org/2000/svg" xmlns:xlink="http://www.w3.org/1999/xlink" x="0px" y="0px"
	 width="100%" viewBox="0 0 960 576" enable-background="new 0 0 960 576" xml:space="preserve">
<path fill="#C8122F" opacity="1.000000" stroke="none" 
	d="
M423.000000,1.000000 
	C461.354218,1.000000 499.708466,1.000000 538.397888,1.452053 
	C538.733093,78.273201 538.733093,154.642303 538.733093,231.324005 
	C541.037659,231.324005 542.680603,231.324005 544.323608,231.324005 
	C681.563477,231.324005 818.803345,231.325134 956.043213,231.310577 
	C957.695496,231.310410 959.347717,231.108002 961.000000,231.000000 
	C961.000000,269.354218 961.000000,307.708466 960.547913,346.397888 
	C959.429993,346.714508 958.764221,346.679718 958.098389,346.679688 
	C819.859192,346.676910 681.619995,346.675720 543.380798,346.688019 
	C541.939392,346.688141 540.497925,346.866455 538.676086,346.986694 
	C538.676086,348.764709 538.676086,350.229004 538.676086,351.693268 
	C538.676086,425.309784 538.674255,498.926331 538.689636,572.542847 
	C538.689941,574.028564 538.892029,575.514282 539.000000,577.000000 
	C500.645782,577.000000 462.291534,577.000000 423.602112,576.547913 
	C423.266907,499.726746 423.266907,423.357697 423.266907,346.675964 
	C420.962402,346.675964 419.319397,346.675964 417.676422,346.675964 
	C280.436554,346.675964 143.196671,346.674866 5.956800,346.689453 
	C4.304523,346.689636 2.652267,346.891998 1.000001,347.000000 
	C1.000000,308.645782 1.000000,270.291534 1.452053,231.602097 
	C2.569903,231.285446 3.235700,231.320282 3.901498,231.320297 
	C142.140717,231.323074 280.379944,231.324280 418.619171,231.312012 
	C420.060608,231.311890 421.502014,231.133591 423.323914,231.013367 
	C423.323914,229.243866 423.323944,227.775330 423.323944,226.306778 
	C423.323975,152.690231 423.325836,79.073685 423.310455,5.457141 
	C423.310150,3.971406 423.108002,2.485713 423.000000,1.000000 
z"/>
<path fill="#FFFFFF" opacity="1.000000" stroke="none" 
	d="
M422.531342,1.000000 
	C423.108002,2.485713 423.310150,3.971406 423.310455,5.457141 
	C423.325836,79.073685 423.323975,152.690231 423.323944,226.306778 
	C423.323944,227.775330 423.323914,229.243866 423.323914,231.013367 
	C421.502014,231.133591 420.060608,231.311890 418.619171,231.312012 
	C280.379944,231.324280 142.140717,231.323074 3.901498,231.320297 
	C3.235700,231.320282 2.569903,231.285446 1.452053,231.133438 
	C1.000000,154.384781 1.000000,77.769577 1.000000,1.000000 
	C141.354187,1.000000 281.708435,1.000000 422.531342,1.000000 
z"/>
<path fill="#FFFFFF" opacity="1.000000" stroke="none" 
	d="
M961.000000,230.531342 
	C959.347717,231.108002 957.695496,231.310410 956.043213,231.310577 
	C818.803345,231.325134 681.563477,231.324005 544.323608,231.324005 
	C542.680603,231.324005 541.037659,231.324005 538.733093,231.324005 
	C538.733093,154.642303 538.733093,78.273201 538.866577,1.452053 
	C679.572205,1.000000 820.144470,1.000000 961.000000,1.000000 
	C961.000000,77.353996 961.000000,153.708344 961.000000,230.531342 
z"/>
<path fill="#FFFFFF" opacity="1.000000" stroke="none" 
	d="
M1.000001,347.468689 
	C2.652267,346.891998 4.304523,346.689636 5.956800,346.689453 
	C143.196671,346.674866 280.436554,346.675964 417.676422,346.675964 
	C419.319397,346.675964 420.962402,346.675964 423.266907,346.675964 
	C423.266907,423.357697 423.266907,499.726746 423.133453,576.547913 
	C282.427734,577.000000 141.855484,577.000000 1.000000,577.000000 
	C1.000000,500.645996 1.000000,424.291656 1.000001,347.468689 
z"/>
<path fill="#FFFFFF" opacity="1.000000" stroke="none" 
	d="
M539.468689,577.000000 
	C538.892029,575.514282 538.689941,574.028564 538.689636,572.542847 
	C538.674255,498.926331 538.676086,425.309784 538.676086,351.693268 
	C538.676086,350.229004 538.676086,348.764709 538.676086,346.986694 
	C540.497925,346.866455 541.939392,346.688141 543.380798,346.688019 
	C681.619995,346.675720 819.859192,346.676910 958.098389,346.679688 
	C958.764221,346.679718 959.429993,346.714508 960.547913,346.866547 
	C961.000000,423.615204 961.000000,500.230377 961.000000,577.000000 
	C820.645813,577.000000 680.291565,577.000000 539.468689,577.000000 
z"/>
</svg>